SplineFontDB: 3.2
FontName: Vazirmatn-Regular
FullName: Vazirmatn Regular
FamilyName: Vazirmatn
Weight: Regular
Copyright: Copyright 2015 The Vazirmatn Project Authors (https://github.com/rastikerdar/vazirmatn)
Version: 33.000
ItalicAngle: 0
UnderlinePosition: -730
UnderlineWidth: 100
Ascent: 1638
Descent: 410
InvalidEm: 0
LayerCount: 2
Layer: 0 0 "Back" 1
Layer: 1 0 "Fore" 0
PreferredKerning: 4
XUID: [1021 502 1027637223 14955255]
UniqueID: 4204345
FSType: 0
OS2Version: 4
OS2_WeightWidthSlopeOnly: 0
OS2_UseTypoMetrics: 1
CreationTime: 1431850356
ModificationTime: 1654839522
PfmFamily: 33
TTFWeight: 400
TTFWidth: 5
LineGap: 0
VLineGap: 0
Panose: 2 11 6 3 3 8 4 2 2 4
OS2TypoAscent: 2100
OS2TypoAOffset: 0
OS2TypoDescent: -1100
OS2TypoDOffset: 0
OS2TypoLinegap: 0
OS2WinAscent: 2200
OS2WinAOffset: 0
OS2WinDescent: 1300
OS2WinDOffset: 0
HheadAscent: 2100
HheadAOffset: 0
HheadDescent: -1100
HheadDOffset: 0
OS2SubXSize: 1331
OS2SubYSize: 1433
OS2SubXOff: 0
OS2SubYOff: 286
OS2SupXSize: 1331
OS2SupYSize: 1433
OS2SupXOff: 0
OS2SupYOff: 983
OS2StrikeYSize: 102
OS2StrikeYPos: 530
OS2CapHeight: 1638
OS2XHeight: 1082
OS2Vendor: '    '
OS2CodePages: 00000041.20080000
OS2UnicodeRanges: 80002003.80000000.00000008.00000000
Lookup: 1 9 0 "Single Substitution 0" { "Single Substitution 0 subtable"  } []
Lookup: 1 9 0 "Single Substitution 1" { "Single Substitution 1-2"  "Single Substitution 1-1"  "Single Substitution 1-3"  } []
Lookup: 1 9 0 "Single Substitution 2" { "Single Substitution 2-1"  } []
Lookup: 1 9 0 "Single Substitution 3" { "Single Substitution 3-1"  } []
Lookup: 1 9 0 "Single Substitution 4" { "Single Substitution 4-1"  } []
Lookup: 1 9 0 "Single Substitution 5" { "Single Substitution 5-1"  } []
Lookup: 1 9 0 "'fina' Terminal Forms in Arabic lookup 1" { "'fina' Terminal Forms in Arabic lookup 1 subtable"  } ['fina' ('DFLT' <'dflt' > 'arab' <'FAR ' 'KUR ' 'URD ' 'dflt' > ) ]

StartChar: exclam
Encoding: 33 33 1
GlifName: exclam
Width: 556
VWidth: 2799
GlyphClass: 2
Flags: HW
LayerCount: 2
Fore
SplineSet
145 134 m 0
 145 207 205 268 278 268 c 0
 351 268 411 207 411 134 c 0
 411 61 351 1 278 1 c 0
 204 1 145 58 145 134 c 0
182 1381 m 1
 379 1381 l 1
 353 438 l 1
 208 438 l 1
 182 1381 l 1
EndSplineSet
EndChar

StartChar: period
Encoding: 46 46 2
GlifName: period
Width: 556
VWidth: 2799
GlyphClass: 2
Flags: HW
LayerCount: 2
Fore
SplineSet
145 133 m 0
 145 206 205 267 278 267 c 4
 351 267 411 206 411 133 c 0
 411 60 351 0 278 0 c 0
 204 0 145 57 145 133 c 0
EndSplineSet
EndChar

StartChar: colon
Encoding: 58 58 3
GlifName: colon
Width: 556
VWidth: 2799
GlyphClass: 2
Flags: HW
LayerCount: 2
Fore
SplineSet
145 722 m 4
 145 795 205 856 278 856 c 4
 351 856 411 795 411 722 c 4
 411 649 351 589 278 589 c 4
 204 589 145 646 145 722 c 4
145 134 m 0
 145 207 205 268 278 268 c 0
 351 268 411 207 411 134 c 0
 411 61 351 1 278 1 c 0
 204 1 145 58 145 134 c 0
EndSplineSet
EndChar

StartChar: uni060C
Encoding: 1548 1548 5
GlifName: afii57388
Width: 556
VWidth: 2807
GlyphClass: 2
Flags: HW
LayerCount: 2
Fore
SplineSet
434 537 m 5
 340 451 283 377 283 256 c 5
 378 256 409 214 409 132 c 4
 409 51 367 0 285 0 c 0
 180 0 137 63 137 162 c 4
 137 343 231 482 368 589 c 5
 434 537 l 5
EndSplineSet
EndChar

StartChar: uni0615
Encoding: 1557 1557 6
GlifName: uni0615
Width: 0
VWidth: 2748
GlyphClass: 4
Flags: HW
AnchorPoint: "Anchor110" 444 1207 mark 0
AnchorPoint: "Anchor109" 444 1207 mark 0
AnchorPoint: "Anchor101" 443 1984 basemark 0
AnchorPoint: "Anchor101" 444 1207 mark 0
LayerCount: 2
Fore
SplineSet
405 1383 m 2
 588 1383 683 1422 683 1501 c 0
 683 1556 643 1598 584 1598 c 0
 506 1598 420 1522 330 1382 c 1
 405 1383 l 2
239 1382 m 1
 251 1402 264 1422 276 1441 c 1
 276 1923 l 1
 362 1923 l 1
 362 1563 l 1
 429 1646 501 1691 580 1691 c 0
 696 1691 772 1612 772 1505 c 0
 771 1363 650 1291 407 1291 c 2
 127 1291 l 1
 127 1382 l 1
 239 1382 l 1
EndSplineSet
EndChar

StartChar: uni061B
Encoding: 1563 1563 7
GlifName: uni061B_
Width: 556
VWidth: 2807
GlyphClass: 2
Flags: HW
LayerCount: 2
Fore
SplineSet
145 133 m 0
 145 206 205 267 278 267 c 0
 351 267 411 206 411 133 c 0
 411 60 351 0 278 0 c 0
 204 0 145 57 145 133 c 0
434 977 m 1
 340 891 283 817 283 696 c 1
 378 696 409 654 409 572 c 0
 409 491 367 440 285 440 c 0
 180 440 137 503 137 602 c 0
 137 783 231 922 368 1029 c 1
 434 977 l 1
EndSplineSet
EndChar

StartChar: uni061F
Encoding: 1567 1567 8
GlifName: uni061F_
Width: 872
VWidth: 2799
GlyphClass: 2
Flags: HW
LayerCount: 2
Fore
SplineSet
98.9970703125 1026.33203125 m 0
 98.9970703125 1232.60839844 278.561523438 1368.89160156 477.58984375 1368.89160156 c 0
 577.790039062 1368.89160156 682.922851562 1334.34960938 772.561523438 1256.80859375 c 1
 696.0546875 1114.21191406 l 1
 633.1640625 1163.06445312 557.404296875 1185.70605469 487.790039062 1185.70605469 c 0
 375.213867188 1185.70605469 278.711914062 1126.49414062 278.711914062 1023.16992188 c 0
 278.711914062 865 565 813 565 477 c 2
 565 438 l 1
 398 438 l 1
 398 477 l 2
 398 799.661132812 98.9970703125 765.638671875 98.9970703125 1026.33203125 c 0
348 134 m 0
 348 207 408 268 481 268 c 0
 554 268 614 207 614 134 c 0
 614 61 554 1 481 1 c 0
 407 1 348 58 348 134 c 0
EndSplineSet
EndChar

StartChar: uni0621
Encoding: 1569 1569 9
GlifName: uni0621
Width: 829
VWidth: 3091
GlyphClass: 2
Flags: HW
AnchorPoint: "Anchor107" 463 -115 basechar 0
AnchorPoint: "Anchor110" 418 1005 basechar 0
LayerCount: 2
Fore
SplineSet
302 428 m 0
 302 375 346 303 446 248 c 1
 579 292 638 308 730 325 c 1
 730 156 l 1
 565 120 375 60 119 -79 c 1
 93 88 l 1
 161 124 188 139 275 178 c 1
 178 265 148 340 148 427 c 0
 148 597 288 741 461 741 c 0
 553 741 626 719 706 661 c 1
 655 527 l 1
 581 563 529 576 474 576 c 0
 379 576 302 504 302 428 c 0
EndSplineSet
Position2: "Single Positioning lookup 2 subtable" dx=0 dy=0 dh=-104 dv=0
Position2: "Single Positioning lookup 1 subtable" dx=0 dy=0 dh=-100 dv=0
EndChar

StartChar: uni0622
Encoding: 1570 1570 10
GlifName: uni0622
Width: 475
VWidth: 2834
GlyphClass: 3
Flags: HW
AnchorPoint: "Anchor110" 241 1729 basechar 0
AnchorPoint: "Anchor107" 233 -203 basechar 0
LayerCount: 2
Fore
SplineSet
337 1502.23828125 m 6
 347.477539062 1497.46582031 356.60546875 1494.890625 365.700195312 1494.890625 c 4
 390.499023438 1494.890625 415.043945312 1514.04003906 466 1560 c 6
 517 1606 l 5
 608 1524 l 5
 552 1471 l 6
 481.203125 1403.99609375 432.759765625 1373.7890625 379.793945312 1373.7890625 c 4
 352.328125 1373.7890625 323.645507812 1381.91210938 290 1397.23828125 c 6
 161 1456 l 6
 142.428710938 1464.45996094 127.412109375 1470.4296875 111.5546875 1470.4296875 c 4
 82.205078125 1470.4296875 49.9765625 1449.9765625 -13 1387 c 6
 -70 1330 l 5
 -161 1412 l 5
 -103 1472 l 6
 -16.5029296875 1561.47949219 39.01171875 1593.69433594 94.4072265625 1593.69433594 c 4
 129.666992188 1593.69433594 164.877929688 1580.64257812 208 1561 c 6
 337 1502.23828125 l 6
EndSplineSet
Refer: 544 -1 N 1 0 0 1 0 0 3
Position2: "Single Positioning lookup 5 subtable" dx=0 dy=0 dh=120 dv=0
Position2: "Single Positioning lookup 2 subtable" dx=0 dy=0 dh=-140 dv=0
Position2: "Single Positioning lookup 1 subtable" dx=0 dy=0 dh=-80 dv=0
Position2: "Single Positioning lookup 0 subtable" dx=0 dy=0 dh=335 dv=0
LCarets2: 1 0
Ligature2: "'liga' Standard Ligatures in Arabic lookup 9 subtable" uni0627 uni0653
Substitution2: "'fina' Terminal Forms in Arabic lookup 1 subtable" uniFE82
EndChar

StartChar: uni0627
Encoding: 1575 1575 15
GlifName: uni0627
Width: 475
VWidth: 3091
GlyphClass: 2
Flags: HW
AnchorPoint: "Anchor110" 230 1535 basechar 0
AnchorPoint: "Anchor107" 234 -252 basechar 0
LayerCount: 2
Fore
SplineSet
322 1377 m 1
 322 1 l 1
 153 1 l 1
 153 1377 l 1
 322 1377 l 1
EndSplineSet
Position2: "Single Positioning lookup 2 subtable" dx=0 dy=0 dh=-140 dv=0
Position2: "Single Positioning lookup 1 subtable" dx=0 dy=0 dh=-80 dv=0
Position2: "Single Positioning lookup 0 subtable" dx=0 dy=0 dh=137 dv=0
Substitution2: "'fina' Terminal Forms in Arabic lookup 1 subtable" uniFE8E
EndChar

StartChar: uni062D
Encoding: 1581 1581 21
GlifName: uni062D_
Width: 1370
VWidth: 3091
GlyphClass: 2
Flags: HW
AnchorPoint: "Anchor107" 709 -875 basechar 0
AnchorPoint: "Anchor110" 614 1190 basechar 0
LayerCount: 2
Fore
SplineSet
1249 611 m 1
 1249 439 l 1
 671 392 269 153 269 -166 c 0
 269 -398 438 -517 781 -517 c 0
 931 -517 1096 -488 1234 -424 c 1
 1279 -591 l 1
 1139 -657 951 -691 766 -691 c 0
 382 -691 100 -532 100 -175 c 0
 100 155 350 435.672851562 858 547.672851562 c 1
 693.885742188 615.247070312 520.974609375 699 474 699 c 4
 393 699 332.476923077 655.415384615 271 578 c 2
 244 544 l 1
 91 619 l 1
 106 643 l 2
 202.292134831 797.06741573 318 879 475 879 c 4
 640.125976562 879 981.91796875 619.508789062 1249 611 c 1
EndSplineSet
Substitution2: "'fina' Terminal Forms in Arabic lookup 1 subtable" uniFEA2
Substitution2: "'medi' Medial Forms in Arabic lookup 2 subtable" uniFEA4
Substitution2: "'init' Initial Forms in Arabic lookup 3 subtable" uniFEA3
EndChar

StartChar: uni062F
Encoding: 1583 1583 23
GlifName: uni062F_
Width: 980
VWidth: 3091
GlyphClass: 2
Flags: HW
AnchorPoint: "Anchor110" 383 1203 basechar 0
AnchorPoint: "Anchor107" 447 -255 basechar 0
LayerCount: 2
Fore
SplineSet
326 180 m 0
 585 180 710 247 710 379 c 0
 710 504 592 642 296 804 c 5
 375 962 l 1
 717 787 881 592 881 382 c 0
 881 131 716 2 341 2 c 0
 254 2 171 10 99 26 c 1
 99 207 l 1
 186 189 261 180 326 180 c 0
EndSplineSet
Position2: "Single Positioning lookup 2 subtable" dx=0 dy=0 dh=-160 dv=0
Position2: "Single Positioning lookup 1 subtable" dx=0 dy=0 dh=-150 dv=0
Substitution2: "'fina' Terminal Forms in Arabic lookup 1 subtable" uniFEAA
EndChar

StartChar: uni0631
Encoding: 1585 1585 25
GlifName: uni0631
Width: 701
VWidth: 2242
GlyphClass: 2
Flags: HW
AnchorPoint: "Anchor110" 398 887 basechar 0
AnchorPoint: "Anchor107" 332 -634 basechar 0
LayerCount: 2
Fore
SplineSet
47 -538 m 5
 -12 -379 l 5
 313.172105575 -308.528218695 432.368879325 -120.86400133 432.368879325 119.880363719 c 4
 432.368879325 233.364024275 405.882724616 358.642374899 362 489 c 5
 528 545 l 5
 575.254125136 411.086939622 599.987174884 276.539979487 599.987174884 149.727515925 c 4
 599.987174884 -183.649699879 429.054290008 -463.572941117 47 -538 c 5
EndSplineSet
Position2: "Single Positioning lookup 2 subtable" dx=0 dy=0 dh=-31 dv=0
Position2: "Single Positioning lookup 1 subtable" dx=0 dy=0 dh=-30 dv=0
Substitution2: "'fina' Terminal Forms in Arabic lookup 1 subtable" uniFEAE
EndChar

StartChar: uni0633
Encoding: 1587 1587 27
GlifName: uni0633
Width: 2420
VWidth: 2144
GlyphClass: 2
Flags: HW
AnchorPoint: "Anchor110" 1723 973 basechar 0
AnchorPoint: "Anchor107" 693 -744 basechar 0
LayerCount: 2
Fore
SplineSet
1482 0 m 0
 1393 0 1330 25 1287 57 c 1
 1285 -278 1104 -515 689 -515 c 0
 257 -515 99 -251 99 63 c 0
 99 204 130 356 181 498 c 1
 340 434 l 1
 301 311 271 178 271 57 c 0
 271 -159 371 -335 689 -335 c 0
 1022 -335 1112 -150 1112 52 c 0
 1112 210 1057 378 1020 477 c 1
 1191 546 l 1
 1251 357 l 2
 1288 241 1360 182 1484 182 c 0
 1625 182 1666 260 1666 403 c 4
 1666 438 1663 480 1656 564 c 5
 1823 585 l 5
 1839 376 l 6
 1846 268 1891 182 2005 182 c 0
 2115 182 2150 278 2150 389 c 0
 2150 489 2125 600 2110 663 c 1
 2281 709 l 1
 2305 619 2321 516 2321 416 c 0
 2321 199 2241 1 2006 0 c 0
 1878 0 1804 55 1755 153 c 5
 1680 45 1589 0 1482 0 c 0
EndSplineSet
Position2: "Single Positioning lookup 2 subtable" dx=0 dy=0 dh=-160 dv=0
Position2: "Single Positioning lookup 1 subtable" dx=0 dy=0 dh=-80 dv=0
Substitution2: "'fina' Terminal Forms in Arabic lookup 1 subtable" uniFEB2
Substitution2: "'medi' Medial Forms in Arabic lookup 2 subtable" uniFEB4
Substitution2: "'init' Initial Forms in Arabic lookup 3 subtable" uniFEB3
EndChar

StartChar: uni0635
Encoding: 1589 1589 29
GlifName: uni0635
Width: 2555
VWidth: 3091
GlyphClass: 2
Flags: HW
AnchorPoint: "Anchor107" 693 -744 basechar 0
AnchorPoint: "Anchor110" 2029 1180 basechar 0
LayerCount: 2
Fore
SplineSet
689 -515 m 4
 257 -515 99 -251 99 63 c 4
 99 204 130 356 181 498 c 5
 340 434 l 5
 301 311 271 178 271 57 c 4
 271 -159 371 -335 689 -335 c 4
 1022 -335 1112 -150 1112 52 c 4
 1112 210 1057 378 1020 477 c 5
 1191 546 l 5
 1251 357 l 6
 1279 269 1322 213 1371 213 c 1
 1609 618 1837 806 2066 806 c 0
 2294 806 2456 644 2456 430 c 0
 2455 138 2212 0 1718 0 c 2
 1665 0 l 2
 1485 0 1367.97460938 26 1286.97460938 57 c 5
 1284.50585938 -278.298828125 1104.1171875 -515 689 -515 c 4
2073 624 m 0
 1916 624 1739 476 1553 182 c 1
 1714 182 l 2
 2094 182 2280 254 2280 420 c 0
 2280 537 2197 624 2073 624 c 0
EndSplineSet
Position2: "Single Positioning lookup 2 subtable" dx=0 dy=0 dh=-160 dv=0
Position2: "Single Positioning lookup 1 subtable" dx=0 dy=0 dh=-150 dv=0
Substitution2: "'fina' Terminal Forms in Arabic lookup 1 subtable" uniFEBA
Substitution2: "'medi' Medial Forms in Arabic lookup 2 subtable" uniFEBC
Substitution2: "'init' Initial Forms in Arabic lookup 3 subtable" uniFEBB
EndChar

StartChar: uni0637
Encoding: 1591 1591 31
GlifName: uni0637
Width: 1516
VWidth: 3091
GlyphClass: 2
Flags: HW
AnchorPoint: "Anchor110" 494 1539 basechar 0
AnchorPoint: "Anchor107" 662 -252 basechar 0
LayerCount: 2
Fore
SplineSet
1034 624 m 0
 877 624 700 477 514 183 c 1
 675 182 l 2
 1055 182 1241 254 1241 420 c 0
 1241 537 1158 624 1034 624 c 0
331 182 m 1
 356 224 386 267 411 308 c 1
 411 1377 l 5
 581 1377 l 5
 581 546 l 1
 724 718 868 805 1024 805 c 0
 1260 805 1417 649 1417 430 c 0
 1415 138 1172 0 679 0 c 2
 99 0 l 1
 99 182 l 1
 331 182 l 1
EndSplineSet
Position2: "Single Positioning lookup 2 subtable" dx=0 dy=0 dh=-160 dv=0
Position2: "Single Positioning lookup 1 subtable" dx=0 dy=0 dh=-150 dv=0
Substitution2: "'fina' Terminal Forms in Arabic lookup 1 subtable" uniFEC2
Substitution2: "'medi' Medial Forms in Arabic lookup 2 subtable" uniFEC4
Substitution2: "'init' Initial Forms in Arabic lookup 3 subtable" uniFEC3
EndChar

StartChar: uni0639
Encoding: 1593 1593 33
GlifName: uni0639
Width: 1267
VWidth: 3091
GlyphClass: 2
Flags: HW
AnchorPoint: "Anchor107" 677 -872 basechar 0
AnchorPoint: "Anchor110" 672 1255 basechar 0
LayerCount: 2
Fore
SplineSet
1067 416 m 1
 1056 243 l 1
 1011 245 994 245 972 245 c 0
 469 245 268 89 268 -167 c 0
 268 -424.858176633 476.477094501 -510.184682037 706.128245878 -510.184682037 c 0
 852.266139704 -510.184682037 1006.9782118 -475.632745548 1122 -429 c 1
 1168 -596 l 1
 1032.9531361 -656.578307913 873.225267985 -690.704599168 718.977305834 -690.704599168 c 0
 397.054021249 -690.704599168 99 -542.057991229 99 -175 c 0
 99 20 186 209 433 333 c 1
 345 431 314 516 314 622 c 0
 314 823 503 1002 714 1002 c 0
 819 1002 932 961 1054 878 c 1
 988 730 l 1
 886 790 797 822 724 822 c 0
 600 822 490 740 490 608 c 0
 490 506 563 443 617 393 c 1
 753 412 843 421 947 421 c 0
 993 421 1011 419 1067 416 c 1
EndSplineSet
Position2: "Single Positioning lookup 3 subtable" dx=0 dy=0 dh=-93 dv=0
Substitution2: "'fina' Terminal Forms in Arabic lookup 1 subtable" uniFECA
Substitution2: "'medi' Medial Forms in Arabic lookup 2 subtable" uniFECC
Substitution2: "'init' Initial Forms in Arabic lookup 3 subtable" uniFECB
EndChar

StartChar: uni0640
Encoding: 1600 1600 35
GlifName: afii57440
Width: 565
VWidth: 3091
GlyphClass: 2
Flags: HW
AnchorPoint: "Anchor110" 296 916 basechar 0
AnchorPoint: "Anchor107" 300 -245 basechar 0
LayerCount: 2
Fore
SplineSet
-20 182 m 5
 585 182 l 1
 585 0 l 1
 -20 0 l 5
 -20 182 l 5
EndSplineSet
Position2: "Single Positioning lookup 2 subtable" dx=0 dy=0 dh=-160 dv=0
Position2: "Single Positioning lookup 1 subtable" dx=0 dy=0 dh=-150 dv=0
EndChar

StartChar: uni0643
Encoding: 1603 1603 38
GlifName: uni0643
Width: 1804
VWidth: 3094
GlyphClass: 2
Flags: HW
AnchorPoint: "Anchor110" 942 1220 basechar 0
AnchorPoint: "Anchor107" 912 -237 basechar 0
LayerCount: 2
Fore
SplineSet
855 182 m 2
 1013 182 l 2
 1480 182 1482 289 1482 493 c 2
 1482 1377 l 5
 1651 1377 l 5
 1651 496 l 2
 1651 166 1597 -7.06621203108e-14 1020 0 c 2
 855 0 l 2
 353 0 99 120 99 455 c 0
 99 547 121 635 155 717 c 1
 310 659 l 1
 289 600 273 530 273 470 c 0
 274 236 469 182 855 182 c 2
EndSplineSet
Refer: 420 -1 N 1.035 0 0 1.035 -43 0 2
Position2: "Single Positioning lookup 2 subtable" dx=0 dy=0 dh=-140 dv=0
Position2: "Single Positioning lookup 1 subtable" dx=0 dy=0 dh=-80 dv=0
Position2: "Single Positioning lookup 0 subtable" dx=0 dy=0 dh=137 dv=0
Substitution2: "'fina' Terminal Forms in Arabic lookup 1 subtable" uniFEDA
Substitution2: "'medi' Medial Forms in Arabic lookup 2 subtable" uniFEDC
Substitution2: "'init' Initial Forms in Arabic lookup 3 subtable" uniFEDB
EndChar

StartChar: uni0644
Encoding: 1604 1604 39
GlifName: uni0644
Width: 1310
VWidth: 3091
GlyphClass: 2
Flags: HW
AnchorPoint: "Anchor107" 629 -696 basechar 0
AnchorPoint: "Anchor110" 581 1052 basechar 0
LayerCount: 2
Fore
SplineSet
1158 116 m 2
 1158 -306 974 -496 629 -496 c 0
 257 -496 99 -282 99 32 c 0
 99 173 130 325 181 467 c 1
 340 403 l 1
 301 280 271 147 271 26 c 0
 271 -190 371 -316 629 -316 c 0
 868 -316 989 -193 989 98 c 2
 989 1377 l 5
 1158 1377 l 5
 1158 116 l 2
EndSplineSet
Position2: "Single Positioning lookup 2 subtable" dx=0 dy=0 dh=-60 dv=0
Position2: "Single Positioning lookup 1 subtable" dx=0 dy=0 dh=-60 dv=0
Position2: "Single Positioning lookup 0 subtable" dx=0 dy=0 dh=137 dv=0
Substitution2: "'fina' Terminal Forms in Arabic lookup 1 subtable" uniFEDE
Substitution2: "'medi' Medial Forms in Arabic lookup 2 subtable" uniFEE0
Substitution2: "'init' Initial Forms in Arabic lookup 3 subtable" uniFEDF
EndChar

StartChar: uni0645
Encoding: 1605 1605 40
GlifName: uni0645
Width: 1218
VWidth: 2744
GlyphClass: 2
Flags: HW
AnchorPoint: "Anchor110" 762 1025 basechar 0
AnchorPoint: "Anchor107" 207 -780 basechar 0
LayerCount: 2
Fore
SplineSet
950 298 m 0
 950 435 869 540 754 540 c 0
 629 540 569 409 526 267 c 1
 671 203 768 164 816 164 c 0
 905 164 950 216 950 298 c 0
356 299 m 5
 431 559 541 717 750 717 c 0
 961 717 1119 543 1119 297 c 0
 1119 117 1022 -16 814 -16 c 0
 656 -16 482 109 400 109 c 4
 288 109 268 15 268 -292 c 4
 268 -429 273 -506 282 -637 c 5
 110 -637 l 5
 103 -515 99 -411 99 -302 c 4
 99 -3.7078644995 112.969726562 254.444335938 356 299 c 5
EndSplineSet
Position2: "Single Positioning lookup 2 subtable" dx=0 dy=0 dh=-160 dv=0
Position2: "Single Positioning lookup 1 subtable" dx=0 dy=0 dh=-150 dv=0
Substitution2: "'init' Initial Forms in Arabic lookup 3 subtable" uniFEE3
Substitution2: "'medi' Medial Forms in Arabic lookup 2 subtable" uniFEE4
Substitution2: "'fina' Terminal Forms in Arabic lookup 1 subtable" uniFEE2
EndChar

StartChar: uni0647
Encoding: 1607 1607 42
GlifName: uni0647
Width: 954
VWidth: 3091
GlyphClass: 2
Flags: HW
AnchorPoint: "Anchor110" 424 1164 basechar 0
AnchorPoint: "Anchor107" 451 -258 basechar 0
LayerCount: 2
Fore
SplineSet
685 344 m 0
 685 436 568 539 465 629 c 1
 342 512 269 427 269 326 c 0
 269 248 331 182 476 182 c 0
 622 182 685 234 685 344 c 0
341 740 m 1
 302 775 l 1
 408 912 l 1
 671 694 855 530 855 336 c 0
 855 133 704 4 477 4 c 0
 245 4 99 131 99 307 c 0
 99 461 184 585 341 740 c 1
EndSplineSet
Position2: "Single Positioning lookup 2 subtable" dx=0 dy=0 dh=-160 dv=0
Position2: "Single Positioning lookup 1 subtable" dx=0 dy=0 dh=-150 dv=0
Substitution2: "'fina' Terminal Forms in Arabic lookup 1 subtable" uniFEEA
Substitution2: "'medi' Medial Forms in Arabic lookup 2 subtable" uniFEEC
Substitution2: "'init' Initial Forms in Arabic lookup 3 subtable" uniFEEB
EndChar

StartChar: uni0648
Encoding: 1608 1608 43
GlifName: uni0648
Width: 910
VWidth: 2242
GlyphClass: 2
Flags: HW
AnchorPoint: "Anchor107" 431 -644 basechar 0
AnchorPoint: "Anchor110" 445 1077 basechar 0
LayerCount: 2
Fore
SplineSet
811 171 m 4
 811 -217 596 -454 170 -536 c 5
 111 -377 l 5
 418 -318 607 -180 640 27 c 5
 589 11 515 -3 464 -3 c 4
 224 -3 99 99 99 307 c 4
 99 513 213 741 437 741 c 4
 700 741 811 453 811 171 c 4
469 178 m 4
 525 178 587 187 644 204 c 5
 630 428 562 561 435 561 c 4
 303 561 267 402 267 313 c 4
 267 215 333 178 469 178 c 4
EndSplineSet
Position2: "Single Positioning lookup 2 subtable" dx=0 dy=0 dh=-30 dv=0
Position2: "Single Positioning lookup 1 subtable" dx=0 dy=0 dh=-30 dv=0
Substitution2: "'fina' Terminal Forms in Arabic lookup 1 subtable" uniFEEE
EndChar

StartChar: uni0649
Encoding: 1609 1609 44
GlifName: uni0649
Width: 1445
VWidth: 3091
GlyphClass: 2
Flags: HW
AnchorPoint: "Anchor107" 693 -702 basechar 0
AnchorPoint: "Anchor110" 522 863 basechar 0
LayerCount: 2
Fore
SplineSet
689 -505 m 0
 257 -505 99 -241 99 73 c 0
 99 214 130 366 181 508 c 1
 340 444 l 1
 301 321 271 188 271 67 c 0
 271 -149 371 -325 689 -325 c 0
 972 -325 1185 -204 1185 -78 c 0
 1185 -35 1163 10 1097 10 c 2
 935 10 l 2
 737 10 668 111 668 280 c 0
 668 544 839 765 1113 765 c 0
 1182 765 1261 750 1338 698 c 1
 1281 546 l 1
 1226 574 1173 586 1113 586 c 0
 943 586 843 450 843 280 c 0
 843 217 862 190 939 190 c 2
 1107 190 l 2
 1291 190 1346 79 1346 -74 c 0
 1346 -297 1113 -505 689 -505 c 0
EndSplineSet
Substitution2: "'fina' Terminal Forms in Arabic lookup 1 subtable" uniFEF0
Substitution2: "'medi' Medial Forms in Arabic lookup 2 subtable" uniFBE9
Substitution2: "'init' Initial Forms in Arabic lookup 3 subtable" uniFBE8
EndChar

StartChar: uni064B
Encoding: 1611 1611 46
GlifName: uni064B_
Width: 0
VWidth: 2347
GlyphClass: 4
Flags: HW
AnchorPoint: "Anchor110" 301 1064 mark 0
AnchorPoint: "Anchor109" 301 1064 mark 0
AnchorPoint: "Anchor101" 270 1522 basemark 0
AnchorPoint: "Anchor101" 301 1064 mark 0
LayerCount: 2
Fore
SplineSet
58 1024 m 5
 58 1119 l 5
 484 1293 l 5
 484 1198 l 5
 58 1024 l 5
58 1229 m 5
 58 1324 l 5
 484 1498 l 5
 484 1403 l 5
 58 1229 l 5
EndSplineSet
EndChar

StartChar: uni064C
Encoding: 1612 1612 47
GlifName: uni064C_
Width: 0
VWidth: 2347
GlyphClass: 4
Flags: HW
AnchorPoint: "Anchor101" 427 952 mark 0
AnchorPoint: "Anchor101" 413 1472 basemark 0
AnchorPoint: "Anchor109" 427 952 mark 0
AnchorPoint: "Anchor110" 427 952 mark 0
LayerCount: 2
Fore
SplineSet
523 1055 m 1
 457 963 316 902 139 898 c 1
 106 970 l 1
 126.130859375 1025.62304688 136.377929688 1066.62792969 136.377929688 1095.08789062 c 0
 136.377929688 1131.1484375 119.926757812 1147.06835938 86.283203125 1147.06835938 c 0
 67.5576171875 1147.06835938 43.505859375 1142.13671875 14 1133 c 1
 5 1216 l 17
 42.1689453125 1228.60742188 74.83984375 1235.26074219 102.548828125 1235.26074219 c 0
 171.854492188 1235.26074219 210.125 1193.640625 210.125 1099.46679688 c 0
 210.125 1066.79101562 205.517578125 1027.78710938 196 982 c 1
 271 992 386 1014 443 1073 c 1
 350 1080 255 1131 255 1246 c 0
 255 1335 325 1410 420 1410 c 0
 515 1410 585 1344 585 1245 c 0
 585 1205 575 1164 558 1122 c 1
 571 1120 581 1119 602 1117 c 1
 594 1049 l 1
 566 1050 549 1052 523 1055 c 1
478 1138 m 1
 492 1171 505 1212 505 1244 c 0
 505 1294 469 1328 424 1328 c 0
 372 1328 336 1285 336 1242 c 0
 336 1174 402 1155 478 1138 c 1
EndSplineSet
EndChar

StartChar: uni064D
Encoding: 1613 1613 48
GlifName: uni064D_
Width: 0
VWidth: 2347
GlyphClass: 4
Flags: HW
AnchorPoint: "Anchor107" 253 -210 mark 0
AnchorPoint: "Anchor106" 253 -210 mark 0
AnchorPoint: "Anchor100" 304 -605 basemark 0
AnchorPoint: "Anchor100" 253 -210 mark 0
LayerCount: 2
Fore
SplineSet
59 -637 m 1
 59 -542 l 1
 485 -368 l 1
 485 -463 l 1
 59 -637 l 1
59 -432 m 1
 59 -337 l 1
 485 -163 l 1
 485 -258 l 1
 59 -432 l 1
EndSplineSet
EndChar

StartChar: uni064E
Encoding: 1614 1614 49
GlifName: uni064E_
Width: 0
VWidth: 2347
GlyphClass: 4
Flags: HW
AnchorPoint: "Anchor110" 298 1183 mark 0
AnchorPoint: "Anchor109" 298 1183 mark 0
AnchorPoint: "Anchor101" 293 1430 basemark 0
AnchorPoint: "Anchor101" 298 1183 mark 0
LayerCount: 2
Fore
SplineSet
65 1141 m 5
 65 1236 l 5
 491 1410 l 5
 491 1315 l 5
 65 1141 l 5
EndSplineSet
EndChar

StartChar: uni064F
Encoding: 1615 1615 50
GlifName: uni064F_
Width: 0
VWidth: 2347
GlyphClass: 4
Flags: HW
AnchorPoint: "Anchor110" 298 973 mark 0
AnchorPoint: "Anchor109" 298 973 mark 0
AnchorPoint: "Anchor101" 284 1493 basemark 0
AnchorPoint: "Anchor101" 298 973 mark 0
LayerCount: 2
Fore
SplineSet
460 1069 m 1
 432 1070 415 1072 389 1075 c 1
 323 983 198 928 32 919 c 1
 19 996 l 1
 152 1008 261 1041 309 1092 c 1
 216 1099 121 1150 121 1265 c 0
 121 1354 191 1429 286 1429 c 0
 381 1429 451 1363 451 1264 c 0
 451 1224 441 1183 424 1141 c 1
 437 1139 447 1138 468 1136 c 1
 460 1069 l 1
344 1157 m 1
 358 1190 371 1231 371 1263 c 0
 371 1313 335 1347 290 1347 c 0
 238 1347 202 1304 202 1261 c 0
 202 1193 268 1174 344 1157 c 1
EndSplineSet
EndChar

StartChar: uni0650
Encoding: 1616 1616 51
GlifName: uni0650
Width: 0
VWidth: 2347
GlyphClass: 4
Flags: HW
AnchorPoint: "Anchor107" 272 -268 mark 0
AnchorPoint: "Anchor106" 272 -268 mark 0
AnchorPoint: "Anchor100" 320 -492 basemark 0
AnchorPoint: "Anchor100" 272 -268 mark 0
LayerCount: 2
Fore
SplineSet
58 -505 m 1
 58 -410 l 1
 484 -236 l 1
 484 -331 l 1
 58 -505 l 1
EndSplineSet
EndChar

StartChar: uni0651
Encoding: 1617 1617 52
GlifName: uni0651
Width: 0
VWidth: 2425
GlyphClass: 4
Flags: HW
AnchorPoint: "Anchor110" 333 998 mark 0
AnchorPoint: "Anchor109" 333 998 mark 0
AnchorPoint: "Anchor101" 304 1388 basemark 0
AnchorPoint: "Anchor101" 333 998 mark 0
LayerCount: 2
Fore
SplineSet
344 1306 m 1
 347 1223 345 1120 427 1120 c 0
 471.819993176 1120 484.994978309 1159.64912901 484.994978309 1209.10718948 c 0
 484.994978309 1252.58141778 474.815429688 1299.63476562 467 1338 c 1
 558 1356 l 1
 570.532978894 1312.13457387 577.264515107 1267.21746927 577.264515107 1225.22752688 c 4
 577.264515107 1106.25672275 531.928437783 1027 425 1027 c 0
 392 1027 343 1038 315 1084 c 1
 295 1005 226 982 164 982 c 0
 67.2392721571 982 22.809047711 1061.36370026 22.809047711 1161.00522517 c 0
 22.809047711 1193.83964846 27.6335949373 1228.87598101 37 1264 c 1
 118 1251 l 1
 112.250976337 1225.54003806 108.063649529 1197.8714924 108.063649529 1172.39535044 c 0
 108.063649529 1122.49145386 124.130784856 1081 176 1081 c 0
 262 1081 263 1143 263 1267 c 2
 262 1296 l 1
 344 1306 l 1
EndSplineSet
EndChar

StartChar: uni0652
Encoding: 1618 1618 53
GlifName: uni0652
Width: 0
VWidth: 2347
GlyphClass: 4
Flags: HW
AnchorPoint: "Anchor110" 216 977 mark 0
AnchorPoint: "Anchor109" 216 977 mark 0
AnchorPoint: "Anchor101" 213 1386 basemark 0
AnchorPoint: "Anchor101" 216 977 mark 0
LayerCount: 2
Fore
SplineSet
122 1162 m 0
 122 1109 164 1068 217 1068 c 0
 270 1068 311 1109 311 1162 c 0
 311 1215 270 1258 217 1258 c 0
 164 1258 122 1215 122 1162 c 0
42 1162 m 0
 42 1258 121 1338 217 1338 c 0
 313 1338 392 1258 392 1162 c 0
 392 1066 313 987 217 987 c 0
 121 987 42 1066 42 1162 c 0
EndSplineSet
EndChar

StartChar: uni0653
Encoding: 1619 1619 54
GlifName: uni0653
Width: 0
VWidth: 2709
GlyphClass: 4
Flags: HW
AnchorPoint: "Anchor110" 310 1066 mark 0
AnchorPoint: "Anchor109" 310 1066 mark 0
AnchorPoint: "Anchor101" 298 1405 basemark 0
AnchorPoint: "Anchor101" 310 1066 mark 0
LayerCount: 2
Fore
SplineSet
227 1211 m 0
 188 1211 95 1123 61 1088 c 1
 -13 1154 l 1
 42 1215 154 1319 223 1319 c 0
 269 1319 382 1230 443 1230 c 0
 478 1230 552 1295 586 1329 c 1
 659 1263 l 1
 605 1209 510 1122 447 1122 c 0
 401 1122 277 1211 227 1211 c 0
EndSplineSet
EndChar

StartChar: uni0657
Encoding: 1623 1623 57
GlifName: uni0657
Width: 0
VWidth: 2347
GlyphClass: 4
Flags: HW
AnchorPoint: "Anchor110" 284 961 mark 0
AnchorPoint: "Anchor109" 284 961 mark 0
AnchorPoint: "Anchor101" 308 1528 basemark 0
AnchorPoint: "Anchor101" 284 961 mark 0
LayerCount: 2
Fore
SplineSet
95 1366 m 1
 123 1365 140 1363 166 1360 c 1
 232 1452 357 1507 523 1516 c 1
 536 1439 l 1
 403 1427 294 1394 246 1343 c 5
 339 1336 434 1285 434 1170 c 4
 434 1081 364 1006 269 1006 c 0
 174 1006 104 1072 104 1171 c 0
 104 1211 114 1252 131 1294 c 1
 118 1296 108 1297 87 1299 c 1
 95 1366 l 1
211 1278 m 5
 197 1245 184 1204 184 1172 c 0
 184 1122 220 1088 265 1088 c 0
 317 1088 353 1131 353 1174 c 4
 353 1242 287 1261 211 1278 c 5
EndSplineSet
EndChar

StartChar: uni065A
Encoding: 1626 1626 58
GlifName: uni065A_
Width: 0
VWidth: 2347
GlyphClass: 4
Flags: HW
AnchorPoint: "Anchor110" 584 1444 mark 0
AnchorPoint: "Anchor109" 584 1444 mark 0
AnchorPoint: "Anchor101" 579 1861 basemark 0
AnchorPoint: "Anchor101" 584 1444 mark 0
LayerCount: 2
Fore
SplineSet
528.833551894 1471 m 1
 375.406946529 1782.96768655 l 1
 456.527259049 1822.86259865 l 1
 581.170884158 1569.41980111 l 1
 705.815503072 1822.86260422 l 1
 786.935826908 1782.96768655 l 1
 633.509221543 1471 l 1
 528.833551894 1471 l 1
EndSplineSet
EndChar

StartChar: uni0660
Encoding: 1632 1632 59
GlifName: afii57392
Width: 771
VWidth: 2781
GlyphClass: 2
Flags: HW
LayerCount: 2
Fore
SplineSet
386 282 m 1
 178 490 l 5
 384 696 l 1
 593 489 l 1
 386 282 l 1
EndSplineSet
EndChar

StartChar: uni0661
Encoding: 1633 1633 60
GlifName: afii57393
Width: 591
VWidth: 3091
GlyphClass: 2
Flags: HW
LayerCount: 2
Fore
SplineSet
437 0 m 5
 265 0 l 5
 265 227 l 6
 265 673 229 1010 98 1280 c 5
 256 1337 l 5
 397 1024 437 668 437 224 c 6
 437 0 l 5
EndSplineSet
EndChar

StartChar: uni0662
Encoding: 1634 1634 61
GlifName: afii57394
Width: 1072
VWidth: 3091
GlyphClass: 2
Flags: HW
LayerCount: 2
Fore
SplineSet
966 1323 m 1
 970 1275 973 1228 973 1183 c 0
 973 928 891 737 617 737 c 0
 565 737 489 742 409 766 c 1
 437 566 437 392 437 224 c 2
 437 0 l 1
 265 0 l 1
 265 227 l 2
 265 673 229 1010 98 1280 c 1
 255 1336 l 1
 286 1253 309 1202 339 1119 c 0
 398 956 467 912 615 912 c 0
 773 912 810 1029 810 1149 c 0
 810 1207 802 1261 794 1308 c 1
 966 1323 l 1
EndSplineSet
EndChar

StartChar: uni0663
Encoding: 1635 1635 62
GlifName: afii57395
Width: 1349
VWidth: 3091
GlyphClass: 2
Flags: HW
LayerCount: 2
Fore
SplineSet
965 737 m 0
 876 737 788 771 741 856 c 1
 695 772 598 737 536 737 c 0
 490 737 461 738 411 755 c 5
 432 525 437 402 437 224 c 2
 437 0 l 1
 265 0 l 1
 265 227 l 2
 265 673 229 1010 98 1280 c 1
 255 1336 l 1
 296 1231 318 1168 357 1073 c 0
 392 988 426 913 524 912 c 0
 620 912 663 954 664 1138 c 2
 665 1266 l 1
 825 1273 l 1
 829 1156 l 2
 836 965 873 912 963 912 c 0
 1060 912 1087 1026 1087 1143 c 0
 1087 1202 1080 1262 1072 1308 c 1
 1244 1323 l 1
 1248 1279 1250 1235 1250 1192 c 0
 1250 951 1185 737 965 737 c 0
EndSplineSet
EndChar

StartChar: uni0664
Encoding: 1636 1636 63
GlifName: afii57396
Width: 949
VWidth: 3091
GlyphClass: 2
Flags: HW
LayerCount: 2
Fore
SplineSet
407 702 m 1
 268 724 176 812 176 968 c 0
 176 1184 366 1310 626 1310 c 0
 664 1310 695 1309 733 1304 c 1
 725 1129 l 1
 694 1133 662 1134 633 1134 c 0
 466 1134 350 1076 350 971 c 0
 350 859.461914062 455 826 668 826 c 1
 689 660 l 1
 358 548 281 422 281 313 c 0
 281 214 402 175 570 175 c 0
 670 175 757 189 841 212 c 1
 863 30 l 1
 762 10 663 0 570 0 c 0
 291 0 105 95 105 309 c 0
 105 460 207 593 407 702 c 1
EndSplineSet
EndChar

StartChar: uni0665
Encoding: 1637 1637 64
GlifName: afii57397
Width: 1084
VWidth: 3091
GlyphClass: 2
Flags: HW
LayerCount: 2
Fore
SplineSet
542 934 m 0
 333 934 275 549 275 433 c 0
 275 278 343 175 542 175 c 0
 740 175 809 278 809 433 c 0
 809 549 748 934 542 934 c 0
542 0 m 0
 233 0 105 175 105 433 c 0
 105 646 219 1107 542 1107 c 0
 862 1107 979 646 979 433 c 0
 979 175 850 0 542 0 c 0
EndSplineSet
EndChar

StartChar: uni0666
Encoding: 1638 1638 65
GlifName: afii57398
Width: 1003
VWidth: 3091
GlyphClass: 2
Flags: HW
LayerCount: 2
Fore
SplineSet
427 1073 m 4
 300 1073 199 1094 96 1124 c 5
 96 1304 l 5
 202 1273 317 1253 438 1253 c 4
 567 1253 678 1274 791 1305 c 5
 818 1286 l 5
 798.666992188 1084.53320312 787.137695312 878.348632812 787.137695312 673.6484375 c 4
 787.137695312 437.272460938 802.511791569 222.873921769 839 0 c 1
 652 0 l 1
 627.304585635 202.502397793 617.560546875 376.595703125 617.560546875 573.654296875 c 4
 617.560546875 743.787109375 624.823242188 916.12890625 636 1098 c 5
 547 1080 511 1073 427 1073 c 4
EndSplineSet
EndChar

StartChar: uni0667
Encoding: 1639 1639 66
GlifName: afii57399
Width: 1206
VWidth: 3091
GlyphClass: 2
Flags: HW
LayerCount: 2
Fore
SplineSet
517 0 m 1
 436 544 226 1017 81 1251 c 1
 238 1336 l 1
 357 1121 537 711 603 348 c 1
 668 711 849 1121 968 1336 c 1
 1125 1251 l 1
 980 1017 770 544 689 0 c 1
 517 0 l 1
EndSplineSet
EndChar

StartChar: uni0668
Encoding: 1640 1640 67
GlifName: afii57400
Width: 1206
VWidth: 3091
GlyphClass: 2
Flags: HW
LayerCount: 2
Fore
SplineSet
517 1296 m 5
 689 1296 l 5
 770 752 980 279 1125 45 c 1
 968 -40 l 1
 849 175 668 585 603 948 c 1
 537 585 357 175 238 -40 c 1
 81 45 l 1
 226 279 436 752 517 1296 c 5
EndSplineSet
EndChar

StartChar: uni0669
Encoding: 1641 1641 68
GlifName: afii57401
Width: 987
VWidth: 2144
GlyphClass: 2
Flags: HW
LayerCount: 2
Fore
SplineSet
465 788 m 0
 532 788 604 800 636 812 c 1
 628 1000 579 1160 431 1160 c 0
 303 1160 259 1003 259 920 c 4
 259 822 316 788 465 788 c 0
470 615 m 0
 222 615 93 691 93 920 c 4
 93 1103 211 1333 433 1333 c 0
 708 1333 798.30078125 1105.98535156 807 708 c 0
 811 525 817 201 826 0 c 1
 654 0 l 1
 649 205 644 538 642 638 c 1
 602 626 523 615 470 615 c 0
EndSplineSet
EndChar

StartChar: uni066A
Encoding: 1642 1642 69
GlifName: afii57381
Width: 1006
VWidth: 4090
GlyphClass: 2
Flags: HW
LayerCount: 2
Fore
SplineSet
732 1330 m 1
 866 1269 l 1
 276 -15 l 1
 142 46 l 1
 732 1330 l 1
596 186 m 0
 596 260 656 321 730 321 c 0
 804 321 865 260 865 186 c 0
 865 112 804 51 730 51 c 0
 655 51 596 109 596 186 c 0
152 1145 m 0
 152 1219 213 1280 287 1280 c 0
 361 1280 421 1219 421 1145 c 0
 421 1071 361 1010 287 1010 c 0
 212 1010 152 1068 152 1145 c 0
EndSplineSet
EndChar

StartChar: uni066B
Encoding: 1643 1643 70
GlifName: uni066B_
Width: 865
VWidth: 2989
GlyphClass: 2
Flags: HW
LayerCount: 2
Fore
SplineSet
615 708 m 1
 742 649 l 1
 202 -444 l 1
 72 -384 l 1
 615 708 l 1
EndSplineSet
EndChar

StartChar: uni066C
Encoding: 1644 1644 71
GlifName: uni066C_
Width: 533
VWidth: 2075
GlyphClass: 2
Flags: HW
LayerCount: 2
Fore
SplineSet
187 32 m 2
 187 203 l 1
 349 203 l 1
 349 54 l 2
 349 -101.961809064 246.856535665 -253.829059151 156.794921875 -327.754882812 c 1
 78.427734375 -262.13671875 l 1
 142.39453125 -174.182617188 187 -83.46484375 187 32 c 2
EndSplineSet
EndChar

StartChar: uni066D
Encoding: 1645 1645 72
GlifName: afii63167
Width: 1314
VWidth: 2987
GlyphClass: 2
Flags: HW
LayerCount: 2
Fore
SplineSet
541.392922299 940.099609375 m 1
 657.450195312 1293.35552363 l 1
 773.507468326 940.099609375 l 1
 1143.51791145 940.099609375 l 1
 844.605864959 720.785040789 l 1
 958.890501249 368.618683018 l 1
 657.458387913 586.226706779 l 1
 355.179519549 368.618923058 l 1
 470.310080995 720.785046634 l 1
 170.551817963 940.099609375 l 1
 541.392922299 940.099609375 l 1
EndSplineSet
EndChar

StartChar: uni066E
Encoding: 1646 1646 73
GlifName: uni066E_
Width: 1791
VWidth: 3091
GlyphClass: 2
Flags: HW
AnchorPoint: "Anchor107" 939 -240 basechar 0
AnchorPoint: "Anchor110" 940 1016 basechar 0
LayerCount: 2
Fore
SplineSet
1088 0 m 2
 855 0 l 2
 352 0 99 120 99 455 c 0
 99 547 121 635 155 717 c 1
 310 659 l 1
 289 600 273 530 273 470 c 0
 274 236 469 182 855 182 c 2
 1089 182 l 2
 1269 182 1518 183 1518 388 c 0
 1518 463 1501 574 1481 675 c 1
 1655 719 l 1
 1679 615 1692 495 1692 412 c 0
 1692 49 1428 0 1088 0 c 2
EndSplineSet
Substitution2: "'fina' Terminal Forms in Arabic lookup 1 subtable" uni066E.fina
Substitution2: "'medi' Medial Forms in Arabic lookup 2 subtable" uni066E.medi
Substitution2: "'init' Initial Forms in Arabic lookup 3 subtable" uni066E.init
EndChar

StartChar: uni066F
Encoding: 1647 1647 74
GlifName: uni066F_
Width: 1418
VWidth: 3091
GlyphClass: 2
Flags: HW
AnchorPoint: "Anchor107" 693 -668 basechar 0
AnchorPoint: "Anchor110" 924 1118 basechar 0
LayerCount: 2
Fore
SplineSet
689 -442 m 0
 257 -442 99 -178 99 136 c 0
 99 277 130 429 181 571 c 1
 340 507 l 1
 301 384 271 251 271 130 c 0
 271 -86 371 -262 689 -262 c 0
 1029 -262 1155 -123 1155 116 c 1
 1086 96 1028 83 946 83 c 0
 715 83 603 178 603 363 c 0
 603 565 712 790 937 790 c 0
 1226 790 1319 468 1319 160 c 0
 1319 -235 1107 -442 689 -442 c 0
953 255 m 0
 1016 255 1078 267 1140 285 c 1
 1123 427 1075 612 935 612 c 0
 812 612 764 460 764 370 c 0
 764 279 831 255 953 255 c 0
EndSplineSet
Substitution2: "'init' Initial Forms in Arabic lookup 3 subtable" uni066F.init
Substitution2: "'medi' Medial Forms in Arabic lookup 2 subtable" uni066F.medi
Substitution2: "'fina' Terminal Forms in Arabic lookup 1 subtable" uni066F.fina
EndChar

StartChar: uni0670
Encoding: 1648 1648 75
GlifName: uni0670
Width: 0
VWidth: 2608
GlyphClass: 4
Flags: HW
AnchorPoint: "Anchor110" 104 1108 mark 0
AnchorPoint: "Anchor109" 104 1108 mark 0
AnchorPoint: "Anchor101" 104 1474 basemark 0
AnchorPoint: "Anchor101" 104 1108 mark 0
LayerCount: 2
Fore
SplineSet
64 1110 m 5
 64 1473 l 5
 153 1473 l 1
 153 1110 l 1
 64 1110 l 5
EndSplineSet
EndChar

StartChar: uni0674
Encoding: 1652 1652 76
GlifName: uni0674
Width: 558
VWidth: 2573
GlyphClass: 2
Flags: HW
LayerCount: 2
Fore
SplineSet
214 1249 m 1
 168 1284 132 1323 132 1402 c 0
 132 1516 225 1598 327 1598 c 0
 372 1598 410 1588 448 1566 c 1
 449 1467 l 1
 408 1488 371 1491 341 1491 c 0
 284 1491 225 1455 225 1389 c 0
 226 1347 268 1296 343 1307 c 0
 346 1307 349 1309 353 1310 c 2
 485 1358 l 1
 499 1259 l 1
 118 1108 l 1
 104 1206 l 1
 214 1249 l 1
EndSplineSet
EndChar

StartChar: uni06A1
Encoding: 1697 1697 80
GlifName: uni06A_1
Width: 1775
VWidth: 3091
GlyphClass: 2
Flags: HW
AnchorPoint: "Anchor110" 1256 1381 basechar 0
AnchorPoint: "Anchor107" 914 -239 basechar 0
LayerCount: 2
Fore
SplineSet
1321 531 m 0
 1383 531 1442 543 1505 561 c 1
 1488 703 1440 887 1300 887 c 0
 1176 887 1130 737 1130 645 c 0
 1130 554 1198 531 1321 531 c 0
1516 390 m 1
 1451 370 1385 359 1308 359 c 0
 1081 359 968 452 968 639 c 0
 968 839 1077 1065 1302 1065 c 0
 1572 1065 1676 761 1676 460 c 0
 1676 62 1552 0 1186 0 c 2
 855 0 l 2
 344 0 99 120 99 455 c 4
 99 547 121 635 155 717 c 5
 310 659 l 5
 289 600 273 530 273 470 c 4
 273 236 478 182 855 182 c 2
 1198 182 l 2
 1434 182 1516 203 1516 390 c 1
EndSplineSet
Substitution2: "'init' Initial Forms in Arabic lookup 3 subtable" uni06A1.init
Substitution2: "'medi' Medial Forms in Arabic lookup 2 subtable" uni06A1.medi
Substitution2: "'fina' Terminal Forms in Arabic lookup 1 subtable" uni06A1.fina
EndChar

StartChar: uni06A9
Encoding: 1705 1705 81
GlifName: uni06A_9
Width: 1793
VWidth: 3091
GlyphClass: 2
Flags: HW
AnchorPoint: "Anchor110" 1237 1364 basechar 0
AnchorPoint: "Anchor107" 919 -240 basechar 0
LayerCount: 2
Fore
SplineSet
1108 0 m 2
 855 0 l 2
 353 0 99 120 99 455 c 0
 99 547 121 635 155 717 c 1
 310 659 l 1
 289 600 273 530 273 470 c 0
 274 236 469 182 855 182 c 2
 1107 182 l 2
 1366 182 1469 217 1469 354 c 0
 1469 530 1185 690 987 846 c 0
 943.79172024 880.164686322 920.586198147 929.588224617 920.586198147 977.511358141 c 0
 920.586198147 1031.63599439 950.186143587 1083.84678016 1014 1110 c 2
 1733 1402 l 1
 1733 1225 l 1
 1104 970 l 1
 1334 808 1643 611 1643 350 c 0
 1642 102 1480 0 1108 0 c 2
EndSplineSet
Position2: "Single Positioning lookup 4 subtable" dx=0 dy=0 dh=-23 dv=0
Position2: "Single Positioning lookup 2 subtable" dx=0 dy=0 dh=-190 dv=0
Position2: "Single Positioning lookup 1 subtable" dx=0 dy=0 dh=-150 dv=0
Position2: "Single Positioning lookup 0 subtable" dx=0 dy=0 dh=189 dv=0
Substitution2: "'init' Initial Forms in Arabic lookup 3 subtable" uniFB90
Substitution2: "'medi' Medial Forms in Arabic lookup 2 subtable" uniFB91
Substitution2: "'fina' Terminal Forms in Arabic lookup 1 subtable" uniFB8F
EndChar

StartChar: uni06BA
Encoding: 1722 1722 83
GlifName: afii57514
Width: 1386
VWidth: 3091
GlyphClass: 2
Flags: HW
AnchorPoint: "Anchor110" 691 849 basechar 0
AnchorPoint: "Anchor107" 693 -668 basechar 0
LayerCount: 2
Fore
SplineSet
689 -262 m 0
 1022 -262 1112 -77 1112 125 c 0
 1112 283 1057 451 1020 550 c 1
 1191 619 l 1
 1253 447 1287 283 1287 137 c 0
 1287 -202 1107 -442 689 -442 c 0
 257 -442 99 -178 99 136 c 0
 99 277 130 429 181 571 c 1
 340 507 l 1
 301 384 271 251 271 130 c 0
 271 -86 371 -262 689 -262 c 0
EndSplineSet
Substitution2: "'init' Initial Forms in Arabic lookup 3 subtable" uni06BA.init
Substitution2: "'medi' Medial Forms in Arabic lookup 2 subtable" uni06BA.medi
Substitution2: "'fina' Terminal Forms in Arabic lookup 1 subtable" uniFB9F
EndChar

StartChar: uni06F0
Encoding: 1776 1776 86
GlifName: uni06F_0
Width: 864
VWidth: 2699
GlyphClass: 2
Flags: HW
LayerCount: 2
Fore
SplineSet
137 478 m 4
 137 642 268 773 432 773 c 4
 596 773 727 642 727 478 c 4
 727 314 596 183 432 183 c 4
 268 183 137 314 137 478 c 4
290 478 m 4
 290 399 353 336 432 336 c 4
 511 336 574 399 574 478 c 4
 574 557 511 620 432 620 c 4
 353 620 290 557 290 478 c 4
EndSplineSet
EndChar

StartChar: uni06F4
Encoding: 1780 1780 90
GlifName: uni06F_4
Width: 1170
VWidth: 3091
GlyphClass: 2
Flags: HW
LayerCount: 2
Fore
SplineSet
821 1152 m 0
 675 1152 588 1029 588 894 c 0
 588 822.460864232 706.499868053 790.607247079 832.4633815 790.607247079 c 0
 924.926395784 790.607247079 1021.41099792 807.770725926 1078 839 c 1
 1101 666 l 1
 1010.08366127 633.752246108 917.672812128 617.751060517 829.371327751 617.751060517 c 0
 670.870444402 617.751060517 505.610351562 669.306640625 406 771 c 5
 434 558 437 371 437 224 c 2
 437 0 l 1
 265 0 l 1
 265 227 l 2
 265 673 229 1010 98 1280 c 1
 256 1336 l 1
 336 1123 l 2
 398.920898438 955.47265625 411 944 439 930 c 1
 439 1132 576 1329 810 1329 c 0
 939 1329 1008 1281 1057 1246 c 1
 1001 1089 l 1
 953 1118 900 1152 821 1152 c 0
EndSplineSet
Substitution2: "'locl' Localized Forms in Arabic lookup 10 subtable" uni06F4.locl
EndChar

StartChar: uni06F5
Encoding: 1781 1781 91
GlifName: uni06F_5
Width: 1208
VWidth: 3091
GlyphClass: 2
Flags: HW
LayerCount: 2
Fore
SplineSet
271 336 m 0
 271 237 315 172 385 172 c 0
 452 172 502 196 541 402 c 1
 665 402 l 1
 699 196 758 172 826 172 c 0
 902 172 936 234 936 336 c 4
 936 557 812 796 597 1021 c 1
 371 723 271 504 271 336 c 0
604 159 m 1
 570 43 488 0 386 0 c 0
 211 0 105 110 105 337 c 0
 105 580 257 854 469 1143 c 1
 409 1202 l 1
 515 1347 l 1
 954 939 1103 616 1103 337 c 4
 1103 113 1003 0 826 0 c 0
 737 0 638 43 604 159 c 1
EndSplineSet
EndChar

StartChar: uni06F6
Encoding: 1782 1782 92
GlifName: uni06F_6
Width: 997
VWidth: 3091
GlyphClass: 2
Flags: HW
LayerCount: 2
Fore
SplineSet
477 589 m 1
 233 630 113 749 113 906 c 0
 113 1119 267 1327 520 1327 c 0
 617 1327 692 1298 762 1245 c 1
 707 1087 l 1
 656 1117 605 1150 531 1150 c 0
 397 1150 289 1027 289 913 c 0
 289 831 376 768 625 747 c 4
 627 747 630 747 633 749 c 4
 728 809 771 835 870 885 c 5
 915 723 l 1
 632 569 416 300 273 -22 c 1
 117 39 l 1
 225 286 361 463 477 589 c 1
EndSplineSet
Substitution2: "'locl' Localized Forms in Arabic lookup 10 subtable" uni0666
EndChar

StartChar: uniFB8F
Encoding: 64399 64399 107
GlifName: uniF_B_8F_
Width: 1929
VWidth: 3091
GlyphClass: 2
Flags: HW
AnchorPoint: "Anchor110" 1237 1364 basechar 0
AnchorPoint: "Anchor107" 919 -240 basechar 0
LayerCount: 2
Fore
SplineSet
1107 0 m 2
 852 0 l 2
 350 0 99 120 99 455 c 0
 99 547 121 635 155 717 c 1
 310 659 l 1
 289 601 273 531 273 471 c 0
 274 237 467 182 852 182 c 2
 1106 182 l 2
 1365 182 1468 217 1468 354 c 0
 1468 530 1184 690 986 846 c 0
 942.715860088 880.224668768 919.69005556 929.25397466 919.69005556 976.833390029 c 0
 919.69005556 1031.19727325 949.750649187 1083.66829885 1014 1110 c 2
 1733 1402 l 1
 1733 1225 l 1
 1104 970 l 1
 1330 808 1545 670 1644 429 c 0
 1714.63183594 257.057617188 1779 182 1922 182 c 2
 1949 182 l 5
 1948 0 l 5
 1921 0 l 2
 1773 0 1675 55 1594 180 c 1
 1513 62 1400 0 1107 0 c 2
EndSplineSet
EndChar

StartChar: uniFB9F
Encoding: 64415 64415 115
GlifName: uniF_B_9F_
Width: 1477
VWidth: 2144
GlyphClass: 2
Flags: HW
AnchorPoint: "Anchor107" 693 -744 basechar 0
AnchorPoint: "Anchor110" 662 833 basechar 0
LayerCount: 2
Fore
SplineSet
689 -335 m 0
 1022 -335 1112 -150 1112 52 c 0
 1112 210 1057 378 1020 477 c 1
 1191 546 l 1
 1265 312 l 2
 1292 226 1349 182 1458 182 c 2
 1497 182 l 1
 1497 0 l 1
 1462 0 l 2
 1369 0 1328.97460938 15 1286.97460938 57 c 1
 1284.50579131 -278.299100704 1104.11709156 -515 689 -515 c 0
 257 -515 99 -251 99 63 c 0
 99 204 130 356 181 498 c 1
 340 434 l 1
 301 311 271 178 271 57 c 0
 271 -159 371 -335 689 -335 c 0
EndSplineSet
EndChar

StartChar: uniFE73
Encoding: 65139 65139 127
GlifName: uniF_E_73
Width: 691
VWidth: 3091
GlyphClass: 2
Flags: HW
AnchorPoint: "Anchor110" 359 1055 basechar 0
AnchorPoint: "Anchor107" 437 -222 basechar 0
LayerCount: 2
Fore
SplineSet
105 444 m 2
 105 464 l 1
 295 464 l 1
 295 441 l 2
 295 269 410 182 633 182 c 2
 709 182 l 1
 709 0 l 1
 623 0 l 2
 275 0 105 149 105 444 c 2
EndSplineSet
EndChar

StartChar: uniFE8E
Encoding: 65166 65166 153
GlifName: uniF_E_8E_
Width: 536
VWidth: 3091
GlyphClass: 2
Flags: HW
AnchorPoint: "Anchor110" 236 1542 basechar 0
AnchorPoint: "Anchor107" 300 -256 basechar 0
LayerCount: 2
Fore
SplineSet
153 1377 m 1
 322 1377 l 1
 322 421 l 2
 322 233 391 182 531 182 c 2
 556 182 l 5
 556 0 l 5
 531 0 l 2
 276 0 153 130 153 422 c 2
 153 1377 l 1
EndSplineSet
EndChar

StartChar: uniFEA2
Encoding: 65186 65186 173
GlifName: uniF_E_A_2
Width: 1409
VWidth: 3091
GlyphClass: 2
Flags: HW
AnchorPoint: "Anchor107" 709 -875 basechar 0
AnchorPoint: "Anchor110" 614 1190 basechar 0
LayerCount: 2
Fore
SplineSet
100 -175 m 0
 100 155 350 435.672851562 858 547.672851562 c 1
 693.885742188 615.247070312 520.974609375 699 474 699 c 4
 393 699 323 645 271 578 c 2
 244 544 l 1
 91 619 l 1
 106 643 l 2
 194 786 318 879 475 879 c 4
 640.125976562 879 981.91796875 619.508789062 1249 611 c 1
 1249 439 l 1
 1175 434 1096 424 1031 411 c 1
 1031 198 1143 182 1348 182 c 2
 1429 182 l 1
 1429 0 l 1
 1351 0 l 2
 1040 0 886 75 886 382 c 1
 456 266 269 48 269 -166 c 0
 269 -398 438 -517 781 -517 c 0
 931 -517 1096 -488 1234 -424 c 1
 1279 -591 l 1
 1139 -657 951 -691 766 -691 c 0
 382 -691 100 -532 100 -175 c 0
EndSplineSet
EndChar

StartChar: uniFEA3
Encoding: 65187 65187 174
GlifName: uniF_E_A_3
Width: 1372
VWidth: 3091
GlyphClass: 2
Flags: HW
AnchorPoint: "Anchor110" 621 1183 basechar 0
AnchorPoint: "Anchor107" 581 -251 basechar 0
LayerCount: 2
Fore
SplineSet
-20 182 m 1
 150 182 l 2
 463 182 684 301 982 457 c 1
 792 526 554.520507812 643 499 643 c 0
 418 643 358 589 306 522 c 2
 279 488 l 1
 126 563 l 1
 141 587 l 2
 229 730 343 823 500 823 c 0
 665.125976562 823 1016.91821351 563.508863681 1284 555 c 1
 1284 382 l 1
 1199 372 1094 327 882 215 c 0
 626 79 429 0 147 0 c 2
 -20 0 l 1
 -20 182 l 1
EndSplineSet
Position2: "Single Positioning lookup 2 subtable" dx=0 dy=0 dh=-160 dv=0
Position2: "Single Positioning lookup 1 subtable" dx=0 dy=0 dh=-100 dv=0
EndChar

StartChar: uniFEA4
Encoding: 65188 65188 175
GlifName: uniF_E_A_4
Width: 1396
VWidth: 3091
GlyphClass: 2
Flags: HW
AnchorPoint: "Anchor110" 621 1183 basechar 0
AnchorPoint: "Anchor107" 581 -251 basechar 0
LayerCount: 2
Fore
SplineSet
1284 555 m 1
 1284 382 l 1
 1227 376 1156 358 1070 317 c 1
 1072 206 1170 182 1361 182 c 2
 1416 182 l 1
 1416 0 l 1
 1357 0 l 2
 1085 0 967 61 940 248 c 1
 676 104 432 0 147 0 c 2
 -20 0 l 1
 -20 182 l 1
 150 182 l 2
 463 182 683 301 982 457 c 1
 792 526 554.520507812 643 499 643 c 0
 418 643 358 589 306 522 c 2
 279 488 l 1
 126 563 l 1
 141 587 l 2
 229 730 343 823 500 823 c 0
 665.125976562 823 1016.91796875 563.508789062 1284 555 c 1
EndSplineSet
EndChar

StartChar: uniFEAA
Encoding: 65194 65194 181
GlifName: uniF_E_A_A_
Width: 1089
VWidth: 3091
GlyphClass: 2
Flags: HW
AnchorPoint: "Anchor107" 415 -255 basechar 0
AnchorPoint: "Anchor110" 516 1187 basechar 0
LayerCount: 2
Fore
SplineSet
675 364 m 0
 675 399 657 461 636 509 c 2
 459 910 l 1
 615 983 l 1
 842 449 l 2
 934 232 980 182 1067 182 c 2
 1109 182 l 1
 1109 0 l 1
 1067 0 l 2
 909 0 854 57 780 172 c 1
 686 54 547 1 331 1 c 0
 237 1 165 10 99 26 c 1
 99 207 l 1
 180 188 248 180 316 180 c 0
 557 180 675 244 675 364 c 0
EndSplineSet
EndChar

StartChar: uniFEAE
Encoding: 65198 65198 185
GlifName: uniF_E_A_E_
Width: 791
VWidth: 2242
GlyphClass: 2
Flags: HW
AnchorPoint: "Anchor107" 332 -634 basechar 0
AnchorPoint: "Anchor110" 408 887 basechar 0
LayerCount: 2
Fore
SplineSet
784 0 m 2
 692 0 631 30 596 58 c 1
 566 -204 425 -464 47 -537 c 1
 -12 -379 l 1
 313.171909511 -308.528526256 432.368768761 -120.864032872 432.368768761 119.880620212 c 0
 432.368768761 233.364238962 405.882677947 358.642513536 362 489 c 1
 528 545 l 1
 582 336 l 2
 611 224 675 182 773 182 c 2
 811 182 l 5
 811 0 l 5
 784 0 l 2
EndSplineSet
EndChar

StartChar: uniFEB2
Encoding: 65202 65202 189
GlifName: uniF_E_B_2
Width: 2533
VWidth: 2144
GlyphClass: 2
Flags: HW
AnchorPoint: "Anchor107" 687 -744 basechar 0
AnchorPoint: "Anchor110" 1723 973 basechar 0
LayerCount: 2
Fore
SplineSet
689 -335 m 0
 1022 -335 1112 -150 1112 52 c 0
 1112 210 1057 378 1020 477 c 1
 1191 546 l 1
 1251 357 l 2
 1288 241 1359.99609375 182 1483 182 c 0
 1624 182 1665 260 1665 403 c 0
 1665 438 1662 479.588867188 1655 564 c 1
 1822 585 l 1
 1838 376 l 2
 1845 268 1890 182 2004 182 c 0
 2103 182 2152 259 2152 403 c 0
 2152 451 2149 495 2142 581 c 1
 2309 601 l 1
 2325 376 l 2
 2333 248 2401 182 2523 182 c 2
 2553 182 l 1
 2553 0 l 1
 2525 0 l 2
 2385 0 2288 51 2254 154 c 1
 2198 55 2136 0 2005 0 c 0
 1877 0 1803 55 1754 153 c 1
 1679 45 1588 0 1481 0 c 0
 1393 0 1329.97460938 25 1286.97460938 57 c 1
 1284.50585938 -278.298828125 1104.1171875 -515 689 -515 c 0
 257 -515 99 -251 99 63 c 0
 99 204 130 356 181 498 c 1
 340 434 l 1
 301 311 271 178 271 57 c 0
 271 -159 371 -335 689 -335 c 0
EndSplineSet
EndChar

StartChar: uniFEB3
Encoding: 65203 65203 190
GlifName: uniF_E_B_3
Width: 1615
VWidth: 2144
GlyphClass: 2
Flags: HW
AnchorPoint: "Anchor107" 767 -250 basechar 0
AnchorPoint: "Anchor110" 906 991 basechar 0
LayerCount: 2
Fore
SplineSet
677 0 m 0
 524 0 449 54 400 153 c 1
 337 54 252 0 72 0 c 2
 -20 0 l 1
 -20 182 l 1
 74 182 l 2
 245 182 320 235 320 403 c 0
 320 438 317 479 310 564 c 1
 477 585 l 1
 493 376 l 2
 501 264 560 182 679 182 c 0
 820 182 861 260 861 403 c 0
 861 438 858 480 851 564 c 1
 1018 585 l 1
 1034 376 l 2
 1041 268 1086 182 1200 182 c 0
 1310 182 1345 278 1345 389 c 0
 1345 489 1320 600 1305 663 c 1
 1476 709 l 1
 1500 619 1516 516 1516 416 c 0
 1516 199 1436 1 1201 0 c 0
 1073 0 999 55 950 153 c 1
 875 45 784 0 677 0 c 0
EndSplineSet
Position2: "Single Positioning lookup 2 subtable" dx=0 dy=0 dh=-160 dv=0
Position2: "Single Positioning lookup 1 subtable" dx=0 dy=0 dh=-80 dv=0
EndChar

StartChar: uniFEB4
Encoding: 65204 65204 191
GlifName: uniF_E_B_4
Width: 1729
VWidth: 2144
GlyphClass: 2
Flags: HW
AnchorPoint: "Anchor107" 777 -250 basechar 0
AnchorPoint: "Anchor110" 906 991 basechar 0
LayerCount: 2
Fore
SplineSet
1201 0 m 4
 1073 0 999 55 950 153 c 5
 875 45 784 0 677 0 c 4
 524 0 449 54 400 153 c 1
 337 54 252 0 72 0 c 2
 -20 0 l 1
 -20 182 l 1
 74 182 l 2
 245 182 320 235 320 403 c 0
 320 438 317 479 310 564 c 1
 477 585 l 1
 493 376 l 2
 501 264 560 182 679 182 c 4
 820 182 861 260 861 403 c 4
 861 438 858 479.588867188 851 564 c 5
 1018 585 l 5
 1034 376 l 6
 1041 268 1086 182 1200 182 c 4
 1299 182 1348 259 1348 403 c 4
 1348 451 1345 495 1338 581 c 5
 1505 601 l 5
 1521 376 l 6
 1529 248 1597 182 1719 182 c 6
 1749 182 l 5
 1749 0 l 5
 1721 0 l 6
 1581 0 1484 51 1450 154 c 5
 1394 55 1332 0 1201 0 c 4
EndSplineSet
EndChar

StartChar: uniFEBA
Encoding: 65210 65210 197
GlifName: uniF_E_B_A_
Width: 2602
VWidth: 3091
GlyphClass: 2
Flags: HW
AnchorPoint: "Anchor107" 691 -744 basechar 0
AnchorPoint: "Anchor110" 2029 1170 basechar 0
LayerCount: 2
Fore
SplineSet
689 -335 m 0
 1022 -335 1112 -150 1112 52 c 0
 1112 210 1057 378 1020 477 c 1
 1191 546 l 1
 1252 357 l 2
 1281 269 1322 213 1371 213 c 1
 1609 618 1837 806 2066 806 c 0
 2294 806 2456 644 2456 430 c 0
 2455 343 2429 267 2379 201 c 1
 2416 191 2471 182 2593 182 c 2
 2622 182 l 5
 2622 0 l 5
 2594 0 l 2
 2425 0 2319 37 2245 98 c 1
 2135 37 1954 0 1718 0 c 2
 1665 0 l 2
 1485 0 1367.97460938 26 1286.97460938 57 c 1
 1284.50585938 -278.298828125 1104.1171875 -515 689 -515 c 0
 257 -515 99 -251 99 63 c 0
 99 204 130 356 181 498 c 1
 340 434 l 1
 301 311 271 178 271 57 c 0
 271 -159 371 -335 689 -335 c 0
2073 624 m 0
 1916 624 1739 476 1553 182 c 1
 1714 182 l 2
 2094 182 2280 254 2280 420 c 0
 2280 537 2197 624 2073 624 c 0
EndSplineSet
EndChar

StartChar: uniFEBB
Encoding: 65211 65211 198
GlifName: uniF_E_B_B_
Width: 1713
VWidth: 3091
GlyphClass: 2
Flags: HW
AnchorPoint: "Anchor110" 1168 1170 basechar 0
AnchorPoint: "Anchor107" 712 -256 basechar 0
LayerCount: 2
Fore
SplineSet
1232 624 m 0
 1075 624 897 476 711 182 c 1
 873 182 l 2
 1253 182 1438 254 1438 420 c 0
 1438 537 1356 624 1232 624 c 0
530 213 m 1
 767 618 995 806 1224 806 c 0
 1452 806 1615 644 1615 430 c 0
 1614 138 1371 0 877 0 c 2
 824 0 l 2
 541 0 405 56 344 152 c 1
 267 47 181 0 21 0 c 2
 -20 0 l 5
 -19 182 l 5
 21 182 l 2
 207 182 258 263 258 414 c 0
 258 478 252 528 249 591 c 1
 416 611 l 1
 431 377 l 2
 438 287 466 213 530 213 c 1
EndSplineSet
Position2: "Single Positioning lookup 2 subtable" dx=0 dy=0 dh=-160 dv=0
Position2: "Single Positioning lookup 1 subtable" dx=0 dy=0 dh=-150 dv=0
EndChar

StartChar: uniFEBC
Encoding: 65212 65212 199
GlifName: uniF_E_B_C_
Width: 1761
VWidth: 3091
GlyphClass: 2
Flags: HW
AnchorPoint: "Anchor110" 1168 1170 basechar 0
AnchorPoint: "Anchor107" 712 -256 basechar 0
LayerCount: 2
Fore
SplineSet
1232 624 m 0
 1075 624 897 476 711 182 c 1
 873 182 l 2
 1253 182 1438 254 1438 420 c 0
 1438 537 1356 624 1232 624 c 0
877 0 m 2
 824 0 l 2
 541 0 405 56 344 152 c 1
 267 47 181 0 21 0 c 2
 -20 0 l 1
 -19 182 l 1
 21 182 l 2
 207 182 258 263 258 414 c 0
 258 478 252 528 249 591 c 1
 416 611 l 1
 431 377 l 2
 438 287 466 213 530 213 c 1
 768 618 995 806 1224 806 c 0
 1452 806 1615 644 1615 430 c 0
 1614 343 1588 267 1538 201 c 1
 1576 191 1629 182 1751 182 c 2
 1781 182 l 5
 1781 0 l 5
 1752 0 l 2
 1583 0 1478 37 1404 98 c 1
 1294 37 1113 0 877 0 c 2
EndSplineSet
EndChar

StartChar: uniFEC2
Encoding: 65218 65218 205
GlifName: uniF_E_C_2
Width: 1564
VWidth: 3091
GlyphClass: 2
Flags: HW
AnchorPoint: "Anchor110" 486 1533 basechar 0
AnchorPoint: "Anchor107" 662 -252 basechar 0
LayerCount: 2
Fore
SplineSet
1034 624 m 0
 877 624 700 476 514 182 c 1
 675 182 l 2
 1055 182 1241 254 1241 420 c 0
 1241 537 1158 624 1034 624 c 0
1030 806 m 0
 1256 806 1417 643 1417 430 c 0
 1416 343 1390 267 1340 201 c 1
 1378 191 1432 182 1554 182 c 2
 1584 182 l 5
 1584 0 l 5
 1555 0 l 2
 1386 0 1280 37 1206 98 c 1
 1096 37 915 0 679 0 c 2
 99 0 l 1
 99 182 l 1
 331 182 l 1
 356 224 386 267 411 308 c 1
 411 1377 l 1
 581 1377 l 1
 581 546 l 1
 725 719 867 806 1030 806 c 0
EndSplineSet
EndChar

StartChar: uniFEC3
Encoding: 65219 65219 206
GlifName: uniF_E_C_3
Width: 1334
VWidth: 3091
GlyphClass: 2
Flags: HW
AnchorPoint: "Anchor107" 506 -252 basechar 0
AnchorPoint: "Anchor110" 306 1536 basechar 0
LayerCount: 2
Fore
SplineSet
852 624 m 0
 695 624 518 476 332 182 c 1
 494 182 l 2
 874 182 1059 254 1059 420 c 0
 1059 537 976 624 852 624 c 0
150 182 m 1
 175 224 205 267 230 308 c 1
 230 1377 l 1
 399 1377 l 1
 399 546 l 1
 542 718 686 805 842 805 c 0
 1078 805 1236 649 1236 430 c 0
 1234 138 991 0 498 0 c 2
 -20 0 l 5
 -20 182 l 5
 150 182 l 1
EndSplineSet
Position2: "Single Positioning lookup 2 subtable" dx=0 dy=0 dh=-160 dv=0
Position2: "Single Positioning lookup 1 subtable" dx=0 dy=0 dh=-150 dv=0
EndChar

StartChar: uniFEC4
Encoding: 65220 65220 207
GlifName: uniF_E_C_4
Width: 1382
VWidth: 3091
GlyphClass: 2
Flags: HW
AnchorPoint: "Anchor110" 303 1534 basechar 0
AnchorPoint: "Anchor107" 506 -252 basechar 0
LayerCount: 2
Fore
SplineSet
852 624 m 0
 695 624 518 476 332 182 c 1
 494 182 l 2
 874 182 1059 254 1059 420 c 0
 1059 537 976 624 852 624 c 0
848 806 m 0
 1074 806 1236 643 1236 430 c 0
 1235 343 1208 267 1158 201 c 1
 1195 191 1250 182 1372 182 c 2
 1402 182 l 5
 1402 0 l 5
 1373 0 l 2
 1204 0 1099 37 1025 98 c 1
 915 37 734 0 498 0 c 2
 -20 0 l 1
 -20 182 l 1
 150 182 l 1
 175 224 205 267 230 308 c 1
 230 1377 l 1
 399 1377 l 1
 399 546 l 1
 543 719 685 806 848 806 c 0
EndSplineSet
EndChar

StartChar: uniFECA
Encoding: 65226 65226 213
GlifName: uniF_E_C_A_
Width: 1230
VWidth: 3091
GlyphClass: 2
Flags: HW
AnchorPoint: "Anchor107" 614 -875 basechar 0
AnchorPoint: "Anchor110" 607 1160 basechar 0
LayerCount: 2
Fore
SplineSet
633 691 m 0
 573 691 446 684 347 651 c 1
 476 488 633 362 633 362 c 1
 633 362 792 488 921 651 c 1
 822 684 694 691 633 691 c 0
479 278 m 1
 365 378 164 607 164 685 c 0
 164 795 425 863 633 863 c 0
 838 863 1103 795 1103 685 c 0
 1103 607 896 366 772 266 c 1
 884 196 1008 182 1190 182 c 2
 1250 182 l 1
 1250 0 l 1
 1190 0 l 2
 987 0 827 25 620 170 c 1
 407 50 269 -71 269 -211 c 0
 269 -398 413 -517 702 -517 c 0
 818 -517 943 -498 1063 -458 c 1
 1102 -625 l 1
 988 -666 848 -691 697 -691 c 0
 338 -691 99 -532 99 -211 c 0
 99 33 328 179 479 278 c 1
EndSplineSet
EndChar

StartChar: uniFECB
Encoding: 65227 65227 214
GlifName: uniF_E_C_B_
Width: 1068
VWidth: 3091
GlyphClass: 2
Flags: HW
AnchorPoint: "Anchor110" 577 1183 basechar 0
AnchorPoint: "Anchor107" 509 -251 basechar 0
LayerCount: 2
Fore
SplineSet
287 182 m 1
 227 257 179 374 179 483 c 0
 179 697 367 866 578 866 c 0
 683 866 797 825 919 742 c 1
 852 593 l 1
 750 653 662 685 589 685 c 0
 466 685 355 603 355 476 c 0
 355 327 485 225 511 225 c 0
 520 225 532 226 546 230 c 2
 969 331 l 1
 969 149 l 1
 637 47 366 0 89 0 c 2
 -20 0 l 5
 -20 182 l 5
 287 182 l 1
EndSplineSet
Position2: "Single Positioning lookup 2 subtable" dx=0 dy=0 dh=-160 dv=0
Position2: "Single Positioning lookup 1 subtable" dx=0 dy=0 dh=-80 dv=0
EndChar

StartChar: uniFECC
Encoding: 65228 65228 215
GlifName: uniF_E_C_C_
Width: 1172
VWidth: 3094
GlyphClass: 2
Flags: HW
AnchorPoint: "Anchor107" 603 -248 basechar 0
AnchorPoint: "Anchor110" 617 1095 basechar 0
LayerCount: 2
Fore
SplineSet
622 610 m 0
 562 610 435 604 336 571 c 1
 465 408 622 282 622 282 c 129
 622 282 781 408 910 571 c 1
 811 604 683 610 622 610 c 0
622 782 m 0
 827 782 1092 714 1092 604 c 0
 1092 526 903 308 789 208 c 1
 882 184 968 182 1036 182 c 2
 1192 182 l 1
 1192 0 l 1
 1037 0 l 2
 897 0 756 31 622 108 c 1
 489 31 278 0 138 0 c 2
 -20 0 l 5
 -20 182 l 5
 139 182 l 2
 207 182 364 184 457 208 c 1
 343 308 153 526 153 604 c 0
 153 714 414 782 622 782 c 0
EndSplineSet
EndChar

StartChar: uniFEDA
Encoding: 65242 65242 229
GlifName: uniF_E_D_A_
Width: 1863
VWidth: 3094
GlyphClass: 2
Flags: HW
AnchorPoint: "Anchor110" 942 1220 basechar 0
AnchorPoint: "Anchor107" 912 -237 basechar 0
LayerCount: 2
Fore
SplineSet
855 182 m 2
 1013 182 l 2
 1480 182 1482 289 1482 493 c 2
 1482 1377 l 1
 1651 1377 l 1
 1651 496 l 2
 1651 292 1666 182 1845 182 c 2
 1883 182 l 5
 1883 0 l 5
 1847 0 l 2
 1680 0 1596 54 1557 161 c 1
 1439 32 1288 -3.28205342171e-14 1020 0 c 2
 855 0 l 2
 353 0 99 120 99 455 c 0
 99 547 121 635 155 717 c 1
 310 659 l 1
 289 600 273 530 273 470 c 0
 274 236 469 182 855 182 c 2
EndSplineSet
Refer: 420 -1 N 1.035 0 0 1.035 -43 0 2
EndChar

StartChar: uniFEDB
Encoding: 65243 65243 230
GlifName: uniF_E_D_B_
Width: 909
VWidth: 3091
GlyphClass: 2
Flags: HW
AnchorPoint: "Anchor110" 344 1364 basechar 0
AnchorPoint: "Anchor107" 326 -248 basechar 0
LayerCount: 2
Fore
SplineSet
220 970 m 1
 452 808 759 611 759 350 c 0
 758 102 596 0 224 0 c 2
 -20 0 l 5
 -20 182 l 5
 223 182 l 2
 482 182 585 217 585 354 c 0
 585 530 301 690 103 846 c 0
 59.8939635196 880.083842798 36.8513323257 929.544964381 36.8513323257 977.481979076 c 0
 36.8513323257 1031.81654116 66.4547901659 1084.19304413 130 1110 c 2
 849 1402 l 1
 849 1225 l 1
 220 970 l 1
EndSplineSet
Position2: "Single Positioning lookup 4 subtable" dx=0 dy=0 dh=-23 dv=0
Position2: "Single Positioning lookup 2 subtable" dx=0 dy=0 dh=-190 dv=0
Position2: "Single Positioning lookup 1 subtable" dx=0 dy=0 dh=-150 dv=0
Position2: "Single Positioning lookup 0 subtable" dx=0 dy=0 dh=189 dv=0
EndChar

StartChar: uniFEDC
Encoding: 65244 65244 231
GlifName: uniF_E_D_C_
Width: 1046
VWidth: 3091
GlyphClass: 2
Flags: HW
AnchorPoint: "Anchor110" 344 1364 basechar 0
AnchorPoint: "Anchor107" 326 -248 basechar 0
LayerCount: 2
Fore
SplineSet
220 970 m 1
 447 809 661 670 760 429 c 0
 830.631879025 257.05774904 895 182 1038 182 c 2
 1066 182 l 1
 1066 0 l 1
 1038 0 l 2
 890 0 792 55 711 180 c 1
 630 62 517 0 224 0 c 2
 -20 0 l 5
 -20 182 l 5
 223 182 l 2
 482 182 585 217 585 354 c 0
 585 530 301 690 103 846 c 0
 59.8577238207 880.112497444 36.6739613526 929.645139666 36.6739613526 977.647513456 c 0
 36.6739613526 1031.85119301 66.23475079 1084.10368182 130 1110 c 2
 849 1402 l 1
 849 1225 l 1
 220 970 l 1
EndSplineSet
EndChar

StartChar: uniFEDE
Encoding: 65246 65246 233
GlifName: uniF_E_D_E_
Width: 1372
VWidth: 3091
GlyphClass: 2
Flags: HW
AnchorPoint: "Anchor107" 628 -696 basechar 0
AnchorPoint: "Anchor110" 581 1052 basechar 0
LayerCount: 2
Fore
SplineSet
629 -496 m 0
 257 -496 99 -282 99 32 c 0
 99 173 130 325 181 467 c 1
 340 403 l 1
 301 280 271 147 271 26 c 0
 271 -190 371 -316 629 -316 c 0
 867 -316 989 -193 989 98 c 2
 989 1377 l 1
 1158 1377 l 1
 1158 409 l 2
 1158 259 1200 182 1362 182 c 2
 1392 182 l 5
 1392 0 l 5
 1364 0 l 2
 1247 0 1214 21 1157 76 c 1
 1157 -306 973 -496 629 -496 c 0
EndSplineSet
EndChar

StartChar: uniFEDF
Encoding: 65247 65247 234
GlifName: uniF_E_D_F_
Width: 590
VWidth: 3091
GlyphClass: 2
Flags: HW
AnchorPoint: "Anchor107" 231 -245 basechar 0
AnchorPoint: "Anchor110" 343 1542 basechar 0
LayerCount: 2
Fore
SplineSet
-20 182 m 5
 64 182 l 2
 224 182 268 284 268 420 c 2
 268 1377 l 1
 437 1377 l 1
 437 421 l 2
 437 144 321 0 63 0 c 2
 -20 0 l 5
 -20 182 l 5
EndSplineSet
Position2: "Single Positioning lookup 2 subtable" dx=0 dy=0 dh=-140 dv=0
Position2: "Single Positioning lookup 1 subtable" dx=0 dy=0 dh=-80 dv=0
Position2: "Single Positioning lookup 0 subtable" dx=0 dy=0 dh=137 dv=0
EndChar

StartChar: uniFEE0
Encoding: 65248 65248 235
GlifName: uniF_E_E_0
Width: 651
VWidth: 3091
GlyphClass: 2
Flags: HW
AnchorPoint: "Anchor107" 231 -245 basechar 0
AnchorPoint: "Anchor110" 342 1542 basechar 0
LayerCount: 2
Fore
SplineSet
268 438 m 2
 268 1377 l 1
 437 1377 l 1
 437 435 l 2
 437 288 485 182 639 182 c 2
 671 182 l 5
 671 0 l 5
 641 0 l 2
 491 0 410 53 358 152 c 1
 292 53 243 0 66 0 c 2
 -20 0 l 1
 -20 182 l 1
 64 182 l 2
 231 182 267 291 268 438 c 2
EndSplineSet
EndChar

StartChar: uniFEE2
Encoding: 65250 65250 237
GlifName: uniF_E_E_2
Width: 1298
VWidth: 2744
GlyphClass: 2
Flags: HW
AnchorPoint: "Anchor110" 752 1025 basechar 0
AnchorPoint: "Anchor107" 207 -790 basechar 0
LayerCount: 2
Fore
SplineSet
950 298 m 0
 950 435 868 540 754 540 c 0
 629 540 569 409 526 267 c 1
 671 203 768 164 816 164 c 0
 904 164 950 216 950 298 c 0
1112 383 m 0
 1128 268 1203 182 1291 182 c 2
 1318 182 l 5
 1318 0 l 5
 1291 0 l 2
 1210 0 1124 31 1072 114 c 1
 1026 28 945 -16 814 -16 c 0
 656 -16 482 109 400 109 c 0
 288 109 268 15 268 -292 c 0
 268 -429 273 -506 282 -637 c 1
 110 -637 l 1
 103 -515 99 -411 99 -302 c 0
 99 -3.7078644995 112.969726562 254.444335938 356 299 c 1
 431 559 541 717 750 717 c 0
 934 717 1085 575 1112 383 c 0
EndSplineSet
EndChar

StartChar: uniFEE3
Encoding: 65251 65251 238
GlifName: uniF_E_E_3
Width: 1092
VWidth: 3091
GlyphClass: 2
Flags: HW
AnchorPoint: "Anchor107" 560 -251 basechar 0
AnchorPoint: "Anchor110" 612 1037 basechar 0
LayerCount: 2
Fore
SplineSet
630 540 m 0
 530 540 458 424 406 310 c 1
 448.289158178 266.052443462 490.406423537 231.730884844 529.999995216 206.607723991 c 0
 585.904761296 171.134682002 636.778172529 154 676 154 c 0
 776 154 824 206 824 303 c 0
 824 442 751 540 630 540 c 0
678 -23 m 0
 544 -23 439 35 318 152 c 1
 231 54 169 -1.77573785876e-14 24 0 c 2
 -20 0 l 5
 -20 182 l 5
 19 182 l 2
 287.090524942 182 259.310647779 717 626 717 c 0
 848 717 993 540 993 319 c 0
 993 102 878 -23 678 -23 c 0
EndSplineSet
Substitution2: "Single Substitution 3-1" uniFEE3.long
Position2: "Single Positioning lookup 2 subtable" dx=0 dy=0 dh=-140 dv=0
Position2: "Single Positioning lookup 1 subtable" dx=0 dy=0 dh=-150 dv=0
EndChar

StartChar: uniFEE4
Encoding: 65252 65252 239
GlifName: uniF_E_E_4
Width: 1174
VWidth: 3091
GlyphClass: 2
Flags: HW
AnchorPoint: "Anchor110" 611 1037 basechar 0
AnchorPoint: "Anchor107" 560 -251 basechar 0
LayerCount: 2
Fore
SplineSet
24 0 m 2
 -20 0 l 5
 -20 182 l 5
 19 182 l 2
 287 182 259.310546875 717 626 717 c 0
 835 717 947 573 987 384 c 0
 1014 253 1082 182 1168 182 c 2
 1194 182 l 1
 1194 0 l 1
 1167 0 l 2
 1082 0 994 33 943 111 c 1
 887 29 810 -23 678 -23 c 0
 544 -23 439 35 318 152 c 1
 231 54 169 -1.77573785876e-14 24 0 c 2
630 540 m 0
 530 540 458 424 406 310 c 1
 450.432353206 263.82520157 494.674949203 228.276806892 535.999995252 202.858853651 c 0
 589.541738666 169.926729899 638.185957498 154 676 154 c 0
 776 154 824 206 824 303 c 0
 824 442 751 540 630 540 c 0
EndSplineSet
Substitution2: "Single Substitution 3-1" uniFEE4.long
EndChar

StartChar: uniFEEA
Encoding: 65258 65258 245
GlifName: uniF_E_E_A_
Width: 1062
VWidth: 3091
GlyphClass: 2
Flags: HW
AnchorPoint: "Anchor110" 678 1279 basechar 0
AnchorPoint: "Anchor107" 476 -250 basechar 0
LayerCount: 2
Fore
SplineSet
1047 0 m 2
 851 0 745 108 713 269 c 1
 626 192 548 149 436 149 c 0
 245 149 99 257 99 439 c 0
 99 644 261 790 621 901 c 1
 614 949 l 1
 774 981 l 1
 861 367 l 2
 877 250 935 182 1051 182 c 2
 1082 182 l 5
 1082 0 l 5
 1047 0 l 2
673 513 m 0
 673 533 672 551 669 572 c 2
 644 739 l 1
 385 645 273 560 273 452 c 0
 273 364 337 318 440 318 c 0
 558 318 673 390 673 513 c 0
EndSplineSet
EndChar

StartChar: uniFEEB
Encoding: 65259 65259 246
GlifName: uniF_E_E_B_
Width: 1423
VWidth: 3091
GlyphClass: 2
Flags: HW
AnchorPoint: "Anchor110" 639 1259 basechar 0
AnchorPoint: "Anchor107" 536 -254 basechar 0
LayerCount: 2
Fore
SplineSet
335 457 m 0
 335 378 402 293 528 245 c 1
 649 294 708 367 708 455 c 0
 708 571 627 633 529 633 c 0
 414 633 335 564 335 457 c 0
535 812 m 9
 614 960 l 1
 1093 726 1325 558 1325 367 c 0
 1325 131 1167 10 922 10 c 0
 783 10 604 49 509 81 c 1
 393 38 224 0 79 0 c 2
 -20 0 l 5
 -20 182 l 5
 66 182 l 2
 153.513630669 182 212.759329461 185.371119535 293 195 c 1
 201 269 163 360 163 455 c 0
 163 663 327 790 519 790 c 0
 699 790 862 643 862 474 c 0
 862 349 810 266 716 191 c 1
 774 184 850 177 904 177 c 0
 1065 177 1152 236 1152 364 c 0
 1152 490 841 670 535 812 c 9
EndSplineSet
Position2: "Single Positioning lookup 2 subtable" dx=0 dy=0 dh=-160 dv=0
Position2: "Single Positioning lookup 1 subtable" dx=0 dy=0 dh=-150 dv=0
EndChar

StartChar: uniFEEC
Encoding: 65260 65260 247
GlifName: uniF_E_E_C_
Width: 1020
VWidth: 3091
GlyphClass: 2
Flags: HW
AnchorPoint: "Anchor107" 596 -718 basechar 0
AnchorPoint: "Anchor110" 549 1188 basechar 0
LayerCount: 2
Fore
SplineSet
-20 0 m 1
 -20 182 l 1
 187 182 l 1
 187 200 l 2
 187 485 284 829 545 829 c 0
 714 829 816 699 816 508 c 0
 816 261 599 -1 360 -1 c 1
 387 -113 469 -240 586 -316 c 1
 586 15 723 182 1007 182 c 2
 1040 182 l 5
 1040 0 l 5
 1005 0 l 2
 826 0 736 -88 736 -320 c 0
 736 -349 737 -383 740 -415 c 1
 616 -536 l 1
 389 -422 245 -226 201 0 c 1
 -20 0 l 1
543 653 m 0
 423 653 352 455 352 201 c 2
 352 181 l 1
 519 181 656 332 656 508 c 0
 656 602 609 653 543 653 c 0
EndSplineSet
Substitution2: "Single Substitution 3-1" uniFEEC.long
EndChar

StartChar: uniFEEE
Encoding: 65262 65262 249
GlifName: uniF_E_E_E_
Width: 911
VWidth: 2245
GlyphClass: 2
Flags: HW
AnchorPoint: "Anchor107" 431 -644 basechar 0
AnchorPoint: "Anchor110" 451 1080 basechar 0
LayerCount: 2
Fore
SplineSet
436 741 m 0
 654 741 805 542 810 182 c 1
 931 182 l 5
 931 0 l 5
 794 0 l 1
 750 -230 596 -455 170 -536 c 1
 111 -377 l 1
 412 -319 587 -196 636 0 c 1
 478 0 l 2
 224 0 99 101 99 307 c 128
 99 513 212 741 436 741 c 0
468 182 m 2
 645 182 l 1
 629 439 562 561 433 561 c 128
 304 561 267 402 267 313 c 0
 267 220 326 182 468 182 c 2
EndSplineSet
EndChar

StartChar: uniFEF0
Encoding: 65264 65264 251
GlifName: uniF_E_F_0
Width: 1329
VWidth: 3094
GlyphClass: 2
Flags: HW
AnchorPoint: "Anchor107" 689 -744 basechar 0
AnchorPoint: "Anchor110" 550 670 basechar 0
LayerCount: 2
Fore
SplineSet
689 -515 m 0
 257 -515 99 -251 99 63 c 0
 99 154 107 271 158 423 c 1
 317 364 l 1
 278 231 271 128 271 57 c 0
 271 -159 370 -335 689 -335 c 0
 988 -335 1169 -202 1169 -117 c 0
 1169 -53 1117 -1 993 -1 c 2
 845 -1 l 2
 818 -1 810 24 799 62 c 2
 772 158 l 2
 770 168 776 181 794 181 c 2
 1349 181 l 5
 1349 -1 l 5
 1308 -1 l 1
 1328 -41 1332 -75 1332 -114 c 0
 1332 -291 1129 -515 689 -515 c 0
EndSplineSet
EndChar

StartChar: uniFEFB
Encoding: 65275 65275 262
GlifName: uniF_E_F_B_
Width: 1164
VWidth: 3091
GlyphClass: 3
Flags: HW
AnchorPoint: "Anchor106" 317 -259 baselig 1
AnchorPoint: "Anchor106" 891 -255 baselig 0
AnchorPoint: "Anchor109" 206 1465 baselig 1
AnchorPoint: "Anchor109" 922 1538 baselig 0
LayerCount: 2
Fore
SplineSet
279 0 m 4
 224 0 167 3 108 8 c 5
 108 180 l 5
 191 174 242 171 299 171 c 4
 354 171 394 172 421 176 c 5
 421 176 352 710 109 1260 c 5
 264 1332 l 5
 505 764 582 207 582 207 c 5
 731 249 843 341 843 624 c 6
 843 1377 l 5
 1012 1377 l 5
 1012 621 l 6
 1012 117 707 0 279 0 c 4
EndSplineSet
Position2: "Single Positioning lookup 2 subtable" dx=0 dy=0 dh=-140 dv=0
Position2: "Single Positioning lookup 1 subtable" dx=0 dy=0 dh=-80 dv=0
Position2: "Single Positioning lookup 0 subtable" dx=0 dy=0 dh=137 dv=0
LCarets2: 1 0
Ligature2: "'rlig' Required Ligatures in Arabic lookup 5 subtable" uniFEDF uniFE8E
EndChar

StartChar: uniFEFC
Encoding: 65276 65276 263
GlifName: uniF_E_F_C_
Width: 1234
VWidth: 3091
GlyphClass: 3
Flags: HW
AnchorPoint: "Anchor106" 317 -259 baselig 1
AnchorPoint: "Anchor106" 891 -255 baselig 0
AnchorPoint: "Anchor109" 206 1465 baselig 1
AnchorPoint: "Anchor109" 922 1538 baselig 0
LayerCount: 2
Fore
SplineSet
582 207 m 1
 731 248 843 341 843 624 c 2
 843 1377 l 1
 1012 1377 l 1
 1012 571 l 2
 1012 316 1066 182 1218 182 c 2
 1254 182 l 5
 1254 0 l 5
 1215 0 l 2
 1036 0 948 90 904 244 c 1
 792 79 567 0 279 -0 c 0
 224 0 167 3 108 8 c 1
 108 180 l 1
 191 174 242 171 299 171 c 0
 354 171 394 171 421 176 c 1
 421 176 352 710 109 1260 c 1
 264 1332 l 1
 505 764 582 207 582 207 c 1
EndSplineSet
LCarets2: 1 0
Ligature2: "'rlig' Required Ligatures in Arabic lookup 5 subtable" uniFEE0 uniFE8E
EndChar

StartChar: arabic_dot
Encoding: 65536 -1 264
GlifName: arabic_dot
Width: 197
VWidth: 2812
GlyphClass: 2
Flags: HW
LayerCount: 2
Fore
SplineSet
96 247 m 5
 241 102 l 1
 96 -43 l 1
 -49 102 l 1
 96 247 l 5
EndSplineSet
EndChar

StartChar: arabic_2dots
Encoding: 65537 -1 265
GlifName: arabic_2dots
Width: 517
VWidth: 2812
GlyphClass: 2
Flags: HW
LayerCount: 2
Fore
SplineSet
423 241 m 5
 563 102 l 5
 423 -39 l 5
 284 102 l 5
 423 241 l 5
91 241 m 5
 231 102 l 5
 91 -39 l 5
 -48 102 l 5
 91 241 l 5
EndSplineSet
EndChar

StartChar: arabic_3dots
Encoding: 65538 -1 266
GlifName: arabic_3dots
Width: 528
VWidth: 2805
GlyphClass: 2
Flags: HW
LayerCount: 2
Fore
SplineSet
255 454 m 5
 390 319 l 5
 255 184 l 5
 120 319 l 5
 255 454 l 5
426 201 m 5
 561 66 l 5
 426 -69 l 5
 291 66 l 5
 426 201 l 5
84 201 m 5
 219 66 l 5
 84 -69 l 5
 -51 66 l 5
 84 201 l 5
EndSplineSet
EndChar

StartChar: arabic_3dots_a
Encoding: 65539 -1 267
GlifName: arabic_3dots_a
Width: 528
VWidth: 2820
GlyphClass: 2
Flags: HW
LayerCount: 2
Fore
SplineSet
255 16 m 5
 390 -119 l 5
 255 -254 l 5
 120 -119 l 5
 255 16 l 5
426 269 m 5
 561 134 l 5
 426 -1 l 5
 291 134 l 5
 426 269 l 5
84 269 m 5
 219 134 l 5
 84 -1 l 5
 -51 134 l 5
 84 269 l 5
EndSplineSet
EndChar

StartChar: uni066E.fina
Encoding: 65540 -1 268
GlifName: uni066E_.fina
Width: 1903
VWidth: 3091
GlyphClass: 2
Flags: HW
AnchorPoint: "Anchor110" 893 1003 basechar 0
AnchorPoint: "Anchor107" 912 -237 basechar 0
LayerCount: 2
Fore
SplineSet
1515 591 m 1
 1682 611 l 1
 1699 377 l 2
 1707 250 1769 182 1899 182 c 2
 1923 182 l 5
 1923 0 l 5
 1899 0 l 2
 1748 0 1657 54 1594 179 c 1
 1483 51 1328 0 1022 0 c 2
 855 0 l 2
 352 0 99 120 99 455 c 0
 99 547 121 635 155 717 c 1
 310 659 l 1
 289 600 273 530 273 470 c 0
 274 236 469 182 855 182 c 2
 1022 182 l 2
 1340.04064297 182 1524.00097656 237.879882812 1524.00097656 413.509765625 c 0
 1524.00097656 468.013671875 1519.95417617 534.522391688 1515 591 c 1
EndSplineSet
EndChar

StartChar: uni06A1.fina
Encoding: 65541 -1 269
GlifName: uni06A_1.fina
Width: 1903
VWidth: 3091
GlyphClass: 2
Flags: HW
AnchorPoint: "Anchor107" 912 -237 basechar 0
AnchorPoint: "Anchor110" 1380 1264 basechar 0
LayerCount: 2
Fore
SplineSet
1424 662 m 0
 1348 662 1241 558 1241 469 c 0
 1241 377 1340 268 1426 225 c 1
 1527 268 1614 376 1614 471 c 0
 1614 555 1504 662 1424 662 c 0
855 182 m 2
 943 182 l 2
 960 182 1121 182 1203 187 c 1
 1123 280 1070 369 1070 473 c 0
 1070 637 1244 839 1424 839 c 0
 1611 839 1784 638 1784 471 c 0
 1784 365 1729 280 1648 186 c 1
 1723 182 1780 182 1826 182 c 2
 1923 182 l 5
 1923 0 l 5
 1828 0 l 2
 1752 0 1577 17 1423 72 c 1
 1268 16 1023 0 941 0 c 2
 855 0 l 2
 352 0 99 120 99 455 c 0
 99 547 121 635 155 717 c 1
 310 659 l 1
 289 600 273 530 273 470 c 0
 274 236 469 182 855 182 c 2
EndSplineSet
EndChar

StartChar: uni06A1.init
Encoding: 65542 -1 270
GlifName: uni06A_1.init
Width: 936
VWidth: 3091
GlyphClass: 2
Flags: HW
AnchorPoint: "Anchor110" 449 1383 basechar 0
AnchorPoint: "Anchor107" 366 -262 basechar 0
LayerCount: 2
Fore
SplineSet
483 532 m 0
 544 532 605 544 666 562 c 1
 649 704 601 888 461 888 c 0
 337 888 291 737 291 646 c 0
 291 554 359 532 483 532 c 0
360 182 m 2
 585 182 677 202 677 391 c 1
 611 371 546 360 469 360 c 0
 243 360 129 453 129 639 c 0
 129 840 238 1066 463 1066 c 0
 733 1066 837 762 837 461 c 0
 837 63 704 0 348 0 c 2
 -20 0 l 5
 -20 182 l 5
 360 182 l 2
EndSplineSet
EndChar

StartChar: uni06A1.medi
Encoding: 65543 -1 271
GlifName: uni06A_1.medi
Width: 1019
VWidth: 3091
GlyphClass: 2
Flags: HW
AnchorPoint: "Anchor110" 534 1228 basechar 0
AnchorPoint: "Anchor107" 533 -262 basechar 0
LayerCount: 2
Fore
SplineSet
539 662 m 0
 463 662 356 558 356 469 c 0
 356 377 455 268 541 225 c 1
 642 268 729 376 729 471 c 0
 729 555 619 662 539 662 c 0
899 471 m 0
 899 365 844 280 763 186 c 1
 839 182 896 182 942 182 c 2
 1039 182 l 5
 1039 0 l 5
 945 0 l 2
 869 0 692 17 538 72 c 1
 383 16 202 0 120 0 c 2
 -20 0 l 1
 -20 182 l 1
 120 182 l 2
 176 182 231 182 318 187 c 1
 238 280 185 369 185 473 c 0
 185 637 359 839 539 839 c 0
 726 839 899 638 899 471 c 0
EndSplineSet
EndChar

StartChar: uni066F.fina
Encoding: 65544 -1 272
GlifName: uni066F_.fina
Width: 1409
VWidth: 2834
GlyphClass: 2
Flags: HW
AnchorPoint: "Anchor107" 689 -744 basechar 0
AnchorPoint: "Anchor110" 962 1043 basechar 0
LayerCount: 2
Fore
SplineSet
689 -515 m 0
 257 -515 99 -251 99 63 c 0
 99 204 130 356 181 498 c 1
 340 434 l 1
 301 311 271 178 271 57 c 0
 271 -159 371 -335 689 -335 c 0
 1001 -335 1151 -217 1151 0 c 1
 981 0 l 2
 727 0 602 101 602 307 c 128
 602 513 715 741 939 741 c 0
 1157 741 1308 542 1313 182 c 1
 1429 182 l 5
 1429 0 l 5
 1311 0 l 1
 1311 -324 1077 -515 689 -515 c 0
971 182 m 2
 1148 182 l 1
 1132 439 1065 561 936 561 c 128
 807 561 770 402 770 313 c 0
 770 220 829 182 971 182 c 2
EndSplineSet
EndChar

StartChar: arabic_gaf_bar
Encoding: 65545 -1 273
GlifName: arabic_gaf_bar
Width: 787
VWidth: 2900
GlyphClass: 2
Flags: HW
LayerCount: 2
Fore
SplineSet
-66 1566 m 1
 -66 1676 l 1
 694 1984 l 1
 694 1874 l 1
 -66 1566 l 1
EndSplineSet
EndChar

StartChar: guillemotleft
Encoding: 171 171 283
GlifName: guillemotleft
Width: 918
VWidth: 2075
Flags: HW
LayerCount: 2
Fore
SplineSet
445.90234375 61.369140625 m 5
 350.561523438 -29.9970703125 l 5
 184.990234375 165.701171875 101.983398438 308.940429688 101.983398438 452.137695312 c 4
 101.983398438 595.088867188 184.706054688 737.998046875 350.590820312 933.010742188 c 5
 445.896484375 840.598632812 l 5
 319.4296875 670.903320312 256.412109375 561.315429688 256.412109375 451.688476562 c 4
 256.412109375 341.809570312 319.720703125 231.890625 445.90234375 61.369140625 c 5
798.90234375 61.369140625 m 5
 703.561523438 -29.9970703125 l 5
 538.450195312 165.189453125 455.672851562 308.684570312 455.672851562 452.137695312 c 4
 455.672851562 595.34375 538.166015625 738.5078125 703.590820312 933.010742188 c 5
 798.896484375 840.598632812 l 5
 672.4296875 670.903320312 609.412109375 561.315429688 609.412109375 451.688476562 c 4
 609.412109375 341.809570312 672.720703125 231.890625 798.90234375 61.369140625 c 5
EndSplineSet
EndChar

StartChar: guillemotright
Encoding: 187 187 284
GlifName: guillemotright
Width: 918
VWidth: 2075
Flags: HW
LayerCount: 2
Fore
SplineSet
471.983398438 61.369140625 m 5
 598.165039062 231.890625 661.473632812 341.809570312 661.473632812 451.688476562 c 4
 661.473632812 561.315429688 598.456054688 670.903320312 471.989257812 840.598632812 c 5
 567.294921875 933.010742188 l 5
 733.1796875 737.998046875 815.90234375 595.088867188 815.90234375 452.137695312 c 4
 815.90234375 308.940429688 732.895507812 165.701171875 567.32421875 -29.9970703125 c 5
 471.983398438 61.369140625 l 5
118.983398438 61.369140625 m 5
 245.165039062 231.890625 308.473632812 341.809570312 308.473632812 451.688476562 c 4
 308.473632812 561.315429688 245.456054688 670.903320312 118.989257812 840.598632812 c 5
 214.294921875 933.010742188 l 5
 379.719726562 738.5078125 462.212890625 595.34375 462.212890625 452.137695312 c 4
 462.212890625 308.684570312 379.435546875 165.189453125 214.32421875 -29.9970703125 c 5
 118.983398438 61.369140625 l 5
EndSplineSet
EndChar

StartChar: NameMe.302
Encoding: 65556 -1 293
GlifName: N_ameM_e.302
Width: 530
VWidth: 3091
Flags: HW
LayerCount: 2
Fore
SplineSet
510 0 m 2
 380 0 322 34 269 132 c 1
 220 35 161 0 23 0 c 2
 -20 0 l 5
 -20 182 l 5
 25 182 l 2
 179 182 181 272 181 447 c 2
 181 1095 l 1
 350 1095 l 1
 350 447 l 2
 350 273 360 182 507 182 c 2
 550 182 l 1
 550 0 l 1
 510 0 l 2
EndSplineSet
EndChar

StartChar: NameMe.303
Encoding: 65557 -1 294
GlifName: N_ameM_e.303
Width: 504
VWidth: 3091
Flags: HW
LayerCount: 2
Fore
SplineSet
-20 182 m 5
 11 182 l 2
 152 182 182 272 182 420 c 2
 182 1255 l 1
 351 1255 l 1
 351 422 l 2
 351 152 269 0 10 0 c 2
 -20 0 l 5
 -20 182 l 5
EndSplineSet
EndChar

StartChar: uniFDF2
Encoding: 65010 65010 295
GlifName: uniF_D_F_2
Width: 2578
VWidth: 3103
Flags: HW
AnchorPoint: "Anchor107" 546 -223 basechar 0
AnchorPoint: "Anchor110" 696 1231 basechar 0
LayerCount: 2
Fore
SplineSet
1287 1566 m 1
 1287 1879 l 1
 1372 1879 l 1
 1372 1566 l 1
 1287 1566 l 1
EndSplineSet
Refer: 52 1617 N 1 0 0 1 1029 180 2
Refer: 245 65258 N 1 0 0 1 0 0 2
Refer: 293 -1 N 1 0 0 1 1075 0 2
Refer: 294 -1 N 1 0 0 1 1618 0 2
Refer: 15 1575 N 1 0 0 1 2103 0 2
LCarets2: 3 0 0 0
Ligature2: "'liga' Standard Ligatures in Arabic lookup 9 subtable" uni0627 uniFEDF uniFEE0 uniFEEA
EndChar

StartChar: NameMe.65564
Encoding: 65558 -1 297
GlifName: N_ameM_e.65564
Width: 536
VWidth: 3091
Flags: HW
LayerCount: 2
Fore
SplineSet
153 1247 m 1
 322 1247 l 1
 322 421 l 2
 322 233 391 182 531 182 c 2
 556 182 l 5
 556 0 l 5
 531 0 l 2
 276 0 153 129 153 421 c 2
 153 1247 l 1
EndSplineSet
EndChar

StartChar: NameMe.65565
Encoding: 65559 -1 298
GlifName: N_ameM_e.65565
Width: 720
VWidth: 3098
Flags: HW
LayerCount: 2
Fore
SplineSet
525 216 m 0
 545 216 586 214 622 199 c 1
 604 109 l 1
 576 117 546 121 525 121 c 0
 433 121 373 52 373 -11 c 0
 373 -44 381 -54 416 -54 c 2
 510 -54 l 2
 586 -54 625 -97 625 -157 c 0
 625 -327 483 -421 277 -421 c 0
 205 -421 144 -408 94 -386 c 1
 137 -297 l 1
 175 -315 219 -326 279 -326 c 0
 402 -326 536 -272 536 -178 c 0
 536 -155 508 -150 485 -150 c 2
 410 -150 l 2
 325 -150 279 -105 279 -19 c 0
 279 124 397 216 525 216 c 0
EndSplineSet
EndChar

StartChar: uni060D
Encoding: 1549 1549 299
GlifName: uni060D_
Width: 839
VWidth: 4090
Flags: HW
LayerCount: 2
Fore
SplineSet
619 1477 m 1
 759 1428 l 1
 196 -219 l 1
 56 -170 l 1
 619 1477 l 1
EndSplineSet
EndChar

StartChar: uni066E.init
Encoding: 65560 -1 300
GlifName: N_ameM_e.65541
Width: 584
VWidth: 3091
Flags: HW
AnchorPoint: "Anchor110" 319 1020 basechar 0
AnchorPoint: "Anchor107" 208 -240 basechar 0
LayerCount: 2
Fore
SplineSet
143 0 m 2
 -20 0 l 5
 -20 182 l 5
 141 182 l 2
 274.282470704 182 312.493140972 268.152037402 312.493140972 386.76887262 c 0
 312.493140972 472.623893333 292.475016496 575.486842962 274 675 c 1
 448 719 l 1
 471.338972629 611.555530353 485.028858346 507.998877077 485.028858346 414.55178835 c 0
 485.028858346 173.695382964 394.08263439 -8.52651282912e-14 143 0 c 2
EndSplineSet
EndChar

StartChar: uni066E.medi
Encoding: 65561 -1 301
GlifName: N_ameM_e.65542
Width: 690
VWidth: 3091
Flags: HW
AnchorPoint: "Anchor107" 286 -192 basechar 0
AnchorPoint: "Anchor110" 368 926 basechar 0
LayerCount: 2
Fore
SplineSet
303 591 m 1
 470 611 l 1
 486 377 l 2
 494 249 561 182 689 182 c 2
 710 182 l 5
 710 0 l 5
 687 0 l 2
 539 0 456 55 402 153 c 1
 330 47 204 0 76 0 c 2
 -20 0 l 1
 -20 182 l 1
 76 182 l 2
 245 182 312 257 312 414 c 0
 312 478 308 534 303 591 c 1
EndSplineSet
EndChar

StartChar: uni06BE
Encoding: 1726 1726 318
GlifName: uni06B_E_
Width: 1545
VWidth: 2834
Flags: HW
AnchorPoint: "Anchor110" 760 1283 basechar 0
AnchorPoint: "Anchor107" 534 -251 basechar 0
LayerCount: 2
Fore
SplineSet
48 182 m 1
 123 182 l 1
 123 0 l 1
 97 0 l 1
 48 182 l 1
EndSplineSet
Refer: 246 65259 N 1 0 0 1 122 0 2
Substitution2: "'medi' Medial Forms in Arabic lookup 2 subtable" uniFBAD
Substitution2: "'init' Initial Forms in Arabic lookup 3 subtable" uniFBAC
Substitution2: "'fina' Terminal Forms in Arabic lookup 1 subtable" uniFBAB
EndChar

StartChar: figuredash
Encoding: 8210 8210 321
GlifName: figuredash
Width: 1025
Flags: HW
LayerCount: 2
Fore
SplineSet
885 443 m 1
 140 443 l 1
 140 594 l 1
 885 594 l 1
 885 443 l 1
EndSplineSet
EndChar

StartChar: NameMe.65583
Encoding: 65571 -1 332
GlifName: N_ameM_e.65583
Width: 471
VWidth: 2739
Flags: HW
AnchorPoint: "Anchor101" 246 1226 mark 0
AnchorPoint: "Anchor101" 270 1696 basemark 0
AnchorPoint: "Anchor109" 246 1226 mark 0
AnchorPoint: "Anchor110" 246 1226 mark 0
LayerCount: 2
Fore
SplineSet
205 1351 m 6
 377 1351 435 1367 435 1441 c 4
 435 1493 398 1532 342 1532 c 4
 269 1532 220 1483 135 1351 c 5
 205 1351 l 6
-46 1333 m 5
 -28 1416 l 21
 -11 1401 22 1373 46 1364 c 5
 154 1546 231 1620 337 1620 c 4
 444 1620 519 1545 519 1445 c 4
 519 1311 436 1265 207 1265 c 6
 182 1265 l 6
 62 1265 -17 1286 -46 1333 c 5
EndSplineSet
EndChar

StartChar: uni06CD
Encoding: 1741 1741 344
GlifName: uni06C_D_
Width: 1615
VWidth: 3094
Flags: HW
AnchorPoint: "Anchor107" 879 -709 basechar 0
AnchorPoint: "Anchor110" 689 892 basechar 0
LayerCount: 2
Fore
SplineSet
313 331 m 1
 53 199 l 1
 90 376 l 1
 351 508 l 1
 313 331 l 1
EndSplineSet
Refer: 44 1609 N 1 0 0 1 170 0 2
Substitution2: "'fina' Terminal Forms in Arabic lookup 1 subtable" uni06CD.fina
EndChar

StartChar: uni06D0.dots
Encoding: 65572 -1 345
GlifName: N_ameM_e.65587
Width: 528
VWidth: 2809
Flags: HW
LayerCount: 2
Fore
SplineSet
256 128 m 1
 399 -15 l 1
 256 -160 l 1
 114 -15 l 1
 256 128 l 1
256 417 m 1
 399 274 l 1
 256 129 l 1
 114 274 l 1
 256 417 l 1
EndSplineSet
EndChar

StartChar: uni06CD.fina
Encoding: 65573 -1 346
GlifName: uni06C_D_.fina
Width: 1509
VWidth: 2834
Flags: HW
AnchorPoint: "Anchor110" 703 675 basechar 0
AnchorPoint: "Anchor107" 896 -732 basechar 0
LayerCount: 2
Fore
SplineSet
300 246 m 1
 38 114 l 1
 75 291 l 1
 338 423 l 1
 300 246 l 1
EndSplineSet
Refer: 251 65264 N 1 0 0 1 180 0 2
EndChar

StartChar: uni06D2
Encoding: 1746 1746 375
GlifName: uni06D_2
Width: 1817
VWidth: -3
Flags: HW
AnchorPoint: "Anchor107" 919 -192 basechar 0
AnchorPoint: "Anchor110" 609 1150 basechar 0
LayerCount: 2
Fore
SplineSet
841 172 m 0
 1231 172 1528 215 1711 242 c 1
 1718 62 l 1
 1551 40 1237 1 843 1 c 0
 511 1 99 42 99 294 c 0
 99 443 270 523 353 629 c 0
 426 722 498 909 606 909 c 0
 727 909 902 655 943 581 c 1
 824 476 l 1
 763 556 690 672 613 731 c 1
 550 639 532 597 457 506 c 0
 382 415 275 364 275 310 c 0
 275 189 672 172 841 172 c 0
EndSplineSet
Position2: "Single Positioning lookup 2 subtable" dx=0 dy=0 dh=-120 dv=0
Position2: "Single Positioning lookup 1 subtable" dx=0 dy=0 dh=-120 dv=0
Substitution2: "'fina' Terminal Forms in Arabic lookup 1 subtable" uniFBAF
EndChar

StartChar: uni06D4
Encoding: 1748 1748 377
GlifName: uni06D_4
Width: 612
VWidth: 3091
Flags: HW
LayerCount: 2
Fore
SplineSet
105 182 m 1
 507 182 l 5
 507 0 l 5
 105 0 l 1
 105 182 l 1
EndSplineSet
EndChar

StartChar: uniFBA7
Encoding: 64423 64423 378
GlifName: uniF_B_A_7
Width: 957
VWidth: 3091
Flags: HW
AnchorPoint: "Anchor110" 481 935 basechar 0
AnchorPoint: "Anchor107" 457 -219 basechar 0
LayerCount: 2
Fore
SplineSet
500 422 m 0
 412 422 283 249 247 -20 c 1
 99 16 l 1
 133 363 334 628 497 628 c 0
 633 628 683 512 733 397 c 0
 780 290 826 182 945 182 c 2
 977 182 l 5
 977 0 l 5
 946 0 l 2
 723 0 648 173 593 298 c 0
 564 366 541 422 500 422 c 0
EndSplineSet
EndChar

StartChar: uniFBA8
Encoding: 64424 64424 379
GlifName: uniF_B_A_8
Width: 584
VWidth: 3094
Flags: HW
AnchorPoint: "Anchor107" 278 -687 basechar 0
AnchorPoint: "Anchor110" 336 1003 basechar 0
LayerCount: 2
Fore
SplineSet
381.951171875 -216.591796875 m 5
 311.90234375 -280.6796875 268.680664062 -335.82421875 268.680664062 -424.502929688 c 5
 339.474609375 -424.502929688 362.575195312 -457.291992188 362.575195312 -518.3984375 c 4
 362.575195312 -579.504882812 330.532226562 -618.254882812 268.680664062 -618.254882812 c 4
 189.689453125 -618.254882812 156.900390625 -570.561523438 156.900390625 -496.041992188 c 4
 156.900390625 -360.416015625 227.694335938 -255.342773438 330.532226562 -175.606445312 c 5
 381.951171875 -216.591796875 l 5
EndSplineSet
Refer: 300 -1 N 1 0 0 1 0 0 3
EndChar

StartChar: uniFBA9
Encoding: 64425 64425 380
GlifName: uniF_B_A_9
Width: 1020
VWidth: 2144
Flags: HW
AnchorPoint: "Anchor107" 613 -705 basechar 0
AnchorPoint: "Anchor110" 507 873 basechar 0
LayerCount: 2
Fore
SplineSet
736 -320 m 0
 736 -349 737 -383 740 -415 c 1
 616 -536 l 1
 403 -414 256 -231 256 49 c 1
 183 14 117 0 46 0 c 2
 -20 0 l 1
 -20 182 l 1
 48 182 l 2
 223 182 318 258 424 364 c 1
 536 240 l 1
 470 181 413 103 413 16 c 0
 413 -116 469 -225 586 -315 c 1
 586 16 723 182 1007 182 c 2
 1040 182 l 5
 1040 0 l 5
 1005 0 l 2
 826 0 736 -88 736 -320 c 0
EndSplineSet
EndChar

StartChar: uniFBAB
Encoding: 64427 64427 382
GlifName: uniF_B_A_B_
Width: 1144
VWidth: 2834
Flags: HW
AnchorPoint: "Anchor110" 651 1191 basechar 0
AnchorPoint: "Anchor107" 697 -725 basechar 0
LayerCount: 2
Fore
SplineSet
50 182 m 1
 125 182 l 1
 125 0 l 1
 99 0 l 1
 50 182 l 1
EndSplineSet
Refer: 247 65260 N 1 0 0 1 124 0 2
EndChar

StartChar: uni0658
Encoding: 1624 1624 387
GlifName: uni0658
Width: 0
VWidth: 2347
Flags: HW
AnchorPoint: "Anchor107" 284 -176 basechar 0
AnchorPoint: "Anchor110" 325 988 mark 0
AnchorPoint: "Anchor109" 325 988 mark 0
AnchorPoint: "Anchor101" 321 1315 basemark 0
AnchorPoint: "Anchor101" 325 988 mark 0
LayerCount: 2
Fore
SplineSet
562 1292 m 1
 548 1142 467 1022 313 1022 c 0
 158 1022 78 1143 64 1292 c 1
 166 1292 l 1
 179 1194 216 1125 313 1125 c 0
 410 1125 446 1196 459 1292 c 1
 562 1292 l 1
EndSplineSet
EndChar

StartChar: uniFBC0
Encoding: 64448 64448 388
GlifName: uniF_B_C_0
Width: 810
VWidth: 2748
Flags: HW
LayerCount: 2
Fore
SplineSet
366 1518 m 2
 532 1518 605 1553 605 1615 c 0
 605 1661 575 1693 526 1693 c 0
 462 1693 388 1626 314 1517 c 1
 366 1518 l 2
211 1517 m 1
 222 1533 230 1550 239 1563 c 1
 239 2003 l 1
 334 2003 l 1
 334 1695 l 1
 391 1755 452 1794 521 1794 c 0
 628 1794 704 1719 704 1618 c 0
 703 1481 587 1417 367 1417 c 2
 105 1417 l 1
 105 1517 l 1
 211 1517 l 1
EndSplineSet
EndChar

StartChar: uniFBBF
Encoding: 64447 64447 393
GlifName: uniF_B_B_F_
Width: 567
VWidth: 0
Flags: HW
LayerCount: 2
Fore
SplineSet
189 -317 m 0
 189 -370 231 -411 284 -411 c 0
 337 -411 378 -370 378 -317 c 0
 378 -264 337 -222 284 -222 c 0
 231 -222 189 -264 189 -317 c 0
99 -317 m 0
 99 -216 183 -133 284 -133 c 0
 385 -133 468 -216 468 -317 c 0
 468 -418 385 -502 284 -502 c 0
 183 -502 99 -418 99 -317 c 0
EndSplineSet
EndChar

StartChar: uniFBAF.compact
Encoding: 65598 -1 398
GlifName: uniF_B_A_F_.compact
Width: 1259
VWidth: 3091
Flags: HW
AnchorPoint: "Anchor107" 836 -666 basechar 0
AnchorPoint: "Anchor110" 787 541 basechar 0
LayerCount: 2
Fore
SplineSet
841 -320 m 0
 1173 -320 1341 -273 1419 -250 c 1
 1456 -419 l 1
 1312 -455 1128 -492 843 -492 c 0
 511 -492 99 -452 99 -200 c 0
 99 -40 392 182 686 182 c 2
 1279 182 l 5
 1279 0 l 5
 682 0 l 2
 477 0 275 -138 275 -182 c 0
 275 -283 631 -320 841 -320 c 0
EndSplineSet
EndChar

StartChar: uni06F4.locl
Encoding: 65600 -1 402
GlifName: uni06F_4.urdu
Width: 1259
VWidth: 3091
Flags: HW
LayerCount: 2
Fore
SplineSet
182 1122 m 0
 182 1253 257 1335 378 1335 c 0
 617 1335 786 1123 860 879 c 1
 885 1044 939 1216 1003 1334 c 1
 1160 1249 l 1
 1060 1110 996 948 954 704 c 1
 789 704 l 1
 683 992 522 1157 421 1157 c 0
 373 1157 356 1139 356 1090 c 0
 356 1064 364 1030 376 980 c 0
 406 853 440 640 440 224 c 2
 440 0 l 1
 267 0 l 1
 267 227 l 2
 267 611 240 812 209 953 c 0
 194 1023 182 1075 182 1122 c 0
EndSplineSet
EndChar

StartChar: uni06F7.locl
Encoding: 65601 -1 403
GlifName: uni06F_7.urdu
Width: 1098
VWidth: 3091
Flags: HW
LayerCount: 2
Fore
SplineSet
995 182 m 1
 995 0 l 1
 115 0 l 1
 117 365 451 951 827 1329 c 5
 959 1204 l 5
 579 847 357 409 306 182 c 1
 995 182 l 1
EndSplineSet
EndChar

StartChar: uni06E9
Encoding: 1769 1769 408
GlifName: uni06E_9
Width: 1195
VWidth: 0
Flags: HW
LayerCount: 2
Fore
SplineSet
504 56 m 1
 541 84 l 1
 541 688 l 1
 399 830 l 1
 598 1030 l 1
 797 830 l 1
 655 688 l 1
 655 84 l 1
 692 56 l 1
 504 56 l 1
514 830 m 1
 598 746 l 1
 682 830 l 1
 598 915 l 1
 514 830 l 1
227 830 m 1
 420 637 l 1
 420 145 l 1
 215 -6 l 1
 215 -66 l 1
 981 -66 l 1
 981 -6 l 1
 776 145 l 1
 776 637 l 1
 969 830 l 1
 598 1201 l 1
 227 830 l 1
112 830 m 1
 598 1316 l 1
 1083 830 l 1
 857 604 l 1
 857 186 l 1
 1062 35 l 1
 1062 -147 l 1
 134 -147 l 1
 134 35 l 1
 339 186 l 1
 339 604 l 1
 112 830 l 1
EndSplineSet
EndChar

StartChar: uni06DE
Encoding: 1758 1758 409
GlifName: uni06D_E_
Width: 2016
VWidth: 0
Flags: HW
LayerCount: 2
Fore
SplineSet
447 245 m 1
 447 20 l 1
 671 20 l 1
 447 245 l 1
749 -57 m 1
 370 -57 l 1
 370 322 l 1
 102 590 l 1
 370 857 l 1
 370 1229 l 1
 742 1229 l 1
 1005 1493 l 1
 1268 1229 l 1
 1647 1229 l 1
 1647 850 l 1
 1915 583 l 1
 1647 315 l 1
 1647 -57 l 1
 1275 -57 l 1
 1011 -320 l 1
 749 -57 l 1
1352 20 m 1
 1570 20 l 1
 1570 239 l 1
 1352 20 l 1
1570 927 m 1
 1570 1152 l 1
 1346 1152 l 1
 1570 927 l 1
447 933 m 1
 665 1152 l 1
 447 1152 l 1
 447 933 l 1
447 825 m 1
 447 354 l 1
 779 20 l 1
 1243 20 l 1
 1570 348 l 1
 1570 819 l 1
 1237 1152 l 1
 774 1152 l 1
 447 825 l 1
851 1229 m 1
 1160 1229 l 1
 1005 1383 l 1
 851 1229 l 1
370 748 m 1
 211 589 l 1
 370 430 l 1
 370 748 l 1
1647 743 m 1
 1647 425 l 1
 1806 584 l 1
 1647 743 l 1
1166 -57 m 1
 856 -57 l 1
 1011 -211 l 1
 1166 -57 l 1
913 583 m 0
 913 530 955 489 1008 489 c 0
 1061 489 1103 530 1103 583 c 0
 1103 636 1061 678 1008 678 c 0
 955 678 913 636 913 583 c 0
833 583 m 0
 833 679 912 758 1008 758 c 0
 1104 758 1184 679 1184 583 c 0
 1184 487 1104 407 1008 407 c 0
 912 407 833 487 833 583 c 0
EndSplineSet
EndChar

StartChar: uni06DD
Encoding: 1757 1757 410
GlifName: uni06D_D_
Width: 2472
VWidth: 0
Flags: HW
LayerCount: 2
Fore
SplineSet
288 1380 m 0
 288 1485 374 1572 479 1572 c 0
 516 1572 554 1561 583 1542 c 1
 767 1674 992 1751 1236 1751 c 0
 1479 1751 1705 1675 1889 1544 c 1
 1918 1562 1954 1572 1990 1572 c 0
 2095 1572 2181 1485 2181 1380 c 0
 2181 1344 2171 1309 2153 1280 c 1
 2285 1096 2361 869 2361 626 c 0
 2361 383 2285 158 2153 -26 c 1
 2171 -55 2181 -91 2181 -127 c 0
 2181 -232 2095 -318 1990 -318 c 0
 1954 -318 1918 -308 1889 -290 c 1
 1705 -422 1479 -499 1236 -499 c 0
 992 -499 766 -422 582 -289 c 1
 553 -308 516 -318 479 -318 c 0
 374 -318 288 -232 288 -127 c 0
 288 -90 299 -52 318 -23 c 1
 188 160 111 384 111 626 c 0
 111 868 187 1094 318 1277 c 1
 299 1307 288 1341 288 1380 c 0
1875 -127 m 0
 1875 -190 1927 -241 1990 -241 c 0
 2053 -241 2104 -190 2104 -127 c 0
 2104 -64 2053 -12 1990 -12 c 0
 1927 -12 1875 -64 1875 -127 c 0
365 -127 m 0
 365 -190 416 -241 479 -241 c 0
 542 -241 594 -190 594 -127 c 0
 594 -64 542 -12 479 -12 c 0
 416 -12 365 -64 365 -127 c 0
1875 1380 m 0
 1875 1317 1927 1266 1990 1266 c 0
 2053 1266 2104 1317 2104 1380 c 0
 2104 1443 2053 1495 1990 1495 c 0
 1927 1495 1875 1443 1875 1380 c 0
365 1380 m 0
 365 1317 416 1266 479 1266 c 0
 542 1266 594 1317 594 1380 c 0
 594 1443 542 1495 479 1495 c 0
 416 1495 365 1443 365 1380 c 0
1798 1373 m 1
 671 1373 l 1
 667 1271 582 1189 479 1189 c 0
 453 1189 427 1194 404 1204 c 1
 290 1040 224 841 224 626 c 0
 224 411 290 214 404 50 c 1
 427 60 453 65 479 65 c 0
 580 65 665 -16 671 -116 c 1
 1798 -116 l 1
 1804 -16 1889 65 1990 65 c 0
 2017 65 2044 59 2068 48 c 1
 2183 212 2249 411 2249 626 c 0
 2249 841 2183 1041 2068 1205 c 1
 2045 1195 2017 1189 1990 1189 c 0
 1887 1189 1802 1271 1798 1373 c 1
1802 1467 m 1
 1641 1575 1445 1639 1236 1639 c 0
 1027 1639 832 1575 671 1467 c 1
 1802 1467 l 1
664 -209 m 1
 827 -320 1023 -386 1236 -386 c 0
 1449 -386 1646 -320 1809 -209 c 1
 664 -209 l 1
EndSplineSet
EndChar

StartChar: uniFD3E
Encoding: 64830 64830 411
GlifName: uniF_D_3E_
Width: 879
VWidth: 2075
Flags: HW
LayerCount: 2
Fore
SplineSet
348.171875 976 m 1
 422.498046875 1277.56542969 581.883789062 1531.03808594 792 1645 c 1
 830 1523 l 1
 680.932617188 1408.58496094 577.603515625 1206.96777344 523.92578125 976 c 1
 656 976 l 2
 718 976 726 967 726 906 c 2
 726 280 l 2
 726 218 717 210 656 210 c 2
 523.92578125 210 l 1
 577.603515625 -20.9677734375 680.932617188 -222.584960938 830 -337 c 1
 792 -459 l 1
 581.883789062 -345.038085938 422.498046875 -91.5654296875 348.171875 210 c 1
 189 210 l 2
 128 210 119 219 119 280 c 2
 119 906 l 2
 119 968 128 976 189 976 c 2
 348.171875 976 l 1
422.8828125 468.3046875 m 0
 354.032226562 468.3046875 298.1875 524.150390625 298.1875 593 c 0
 298.1875 661.849609375 354.032226562 717.6953125 422.8828125 717.6953125 c 0
 491.732421875 717.6953125 546.8125 661.849609375 546.8125 593 c 0
 546.8125 524.150390625 491.732421875 468.3046875 422.8828125 468.3046875 c 0
422.844726562 648.768554688 m 0
 391.861328125 648.768554688 366.38671875 623.293945312 366.38671875 593 c 0
 366.38671875 562.706054688 391.861328125 537.231445312 422.844726562 537.231445312 c 0
 453.827148438 537.231445312 478.61328125 562.017578125 478.61328125 593 c 0
 478.61328125 623.982421875 453.827148438 648.768554688 422.844726562 648.768554688 c 0
221 874 m 1
 221 312 l 1
 624 312 l 1
 624 874 l 1
 221 874 l 1
EndSplineSet
EndChar

StartChar: uniFD3F
Encoding: 64831 64831 412
GlifName: uniF_D_3F_
Width: 879
VWidth: 2075
Flags: HW
LayerCount: 2
Fore
SplineSet
530.828125 976 m 1
 690 976 l 2
 751 976 760 968 760 906 c 2
 760 280 l 2
 760 219 751 210 690 210 c 2
 530.828125 210 l 1
 456.501953125 -91.5654296875 297.116210938 -345.038085938 87 -459 c 1
 49 -337 l 1
 198.067382812 -222.584960938 301.396484375 -20.9677734375 355.07421875 210 c 1
 223 210 l 2
 162 210 153 218 153 280 c 2
 153 906 l 2
 153 967 161 976 223 976 c 2
 355.07421875 976 l 1
 301.396484375 1206.96777344 198.067382812 1408.58496094 49 1523 c 1
 87 1645 l 1
 297.116210938 1531.03808594 456.501953125 1277.56542969 530.828125 976 c 1
456.1171875 468.3046875 m 0
 387.267578125 468.3046875 332.1875 524.150390625 332.1875 593 c 0
 332.1875 661.849609375 387.267578125 717.6953125 456.1171875 717.6953125 c 0
 524.967773438 717.6953125 580.8125 661.849609375 580.8125 593 c 0
 580.8125 524.150390625 524.967773438 468.3046875 456.1171875 468.3046875 c 0
456.155273438 648.768554688 m 0
 425.172851562 648.768554688 400.38671875 623.982421875 400.38671875 593 c 0
 400.38671875 562.017578125 425.172851562 537.231445312 456.155273438 537.231445312 c 0
 487.138671875 537.231445312 512.61328125 562.706054688 512.61328125 593 c 0
 512.61328125 623.293945312 487.138671875 648.768554688 456.155273438 648.768554688 c 0
658 874 m 1
 255 874 l 1
 255 312 l 1
 658 312 l 1
 658 874 l 1
EndSplineSet
EndChar

StartChar: uni0610
Encoding: 1552 1552 413
GlifName: uni0610
Width: 0
VWidth: 2748
Flags: HW
AnchorPoint: "Anchor110" 501 1241 mark 0
AnchorPoint: "Anchor109" 501 1241 mark 0
AnchorPoint: "Anchor101" 541 1784 basemark 0
AnchorPoint: "Anchor101" 501 1241 mark 0
LayerCount: 2
Fore
SplineSet
464 1385 m 2
 649 1385 744 1425 744 1505 c 0
 744 1561 704 1603 644 1603 c 0
 565 1603 479 1527 388 1385 c 1
 464 1385 l 2
139 1208 m 1
 159 1243 169 1288 169 1344 c 0
 169 1407 154 1470 124 1533 c 1
 210 1563 l 1
 240 1470 l 2
 254 1426 271 1404 293 1401 c 1
 410 1599 523 1696 641 1696 c 0
 753 1696 835 1614 835 1509 c 0
 834 1365 711 1293 466 1293 c 2
 440 1293 l 2
 354 1293 293 1304 253 1323 c 1
 252 1259 239 1205 215 1161 c 1
 139 1208 l 1
EndSplineSet
EndChar

StartChar: uni0611
Encoding: 1553 1553 414
GlifName: uni0611
Width: 0
VWidth: 2748
Flags: HW
AnchorPoint: "Anchor110" 504 1265 mark 0
AnchorPoint: "Anchor109" 504 1265 mark 0
AnchorPoint: "Anchor101" 541 1814 basemark 0
AnchorPoint: "Anchor101" 504 1265 mark 0
LayerCount: 2
Fore
SplineSet
257 1292 m 1
 256 1243 239 1196 215 1152 c 1
 139 1199 l 1
 159 1234 169 1279 169 1335 c 0
 169 1398 154 1460 124 1523 c 1
 210 1554 l 1
 240 1459 l 2
 254 1415 271 1394 293 1391 c 1
 389 1391 l 1
 359 1430 331 1470 331 1536 c 0
 331 1662 418 1768 557 1768 c 0
 634 1768 695 1743 745 1693 c 1
 708 1612 l 1
 662 1648 620 1666 575 1667 c 0
 488 1667 425 1607 425 1532 c 0
 425 1512 435 1448 508 1416 c 0
 512 1414 521 1410 528 1412 c 2
 762 1471 l 1
 762 1372 l 1
 589 1318 440 1292 295 1292 c 2
 257 1292 l 1
EndSplineSet
EndChar

StartChar: uni0612
Encoding: 1554 1554 415
GlifName: uni0612
Width: 0
VWidth: 2748
Flags: HW
AnchorPoint: "Anchor110" 525 976 mark 0
AnchorPoint: "Anchor109" 525 976 mark 0
AnchorPoint: "Anchor101" 529 1939 basemark 0
AnchorPoint: "Anchor101" 525 976 mark 0
LayerCount: 2
Fore
SplineSet
546 1011 m 1
 521 1009 493 1008 466 1008 c 0
 241 1008 86 1100 86 1301 c 0
 86 1480 227 1631 496 1691 c 1
 482 1696 476 1699 445 1712 c 0
 370 1742 322 1761 296 1761 c 0
 253 1761 211 1733 184 1698 c 2
 169 1678 l 1
 85 1720 l 1
 93 1734 l 2
 140 1810 213 1860 297 1860 c 0
 344 1860 399 1838 465 1807 c 0
 581 1751 650 1726 714 1723 c 1
 706 1629 l 1
 409 1605 178 1477 178 1310 c 0
 178 1172 276 1104 474 1104 c 0
 492 1104 511 1105 529 1106 c 1
 546 1011 l 1
890 1628 m 1
 922 1553 941 1474 941 1398 c 0
 941 1235 851 1083 636 1034 c 1
 596 1116 l 1
 776 1160 848 1264 848 1388 c 0
 848 1453 830 1523 800 1595 c 1
 890 1628 l 1
EndSplineSet
EndChar

StartChar: uni06DC
Encoding: 1756 1756 416
GlifName: uni06D_C_
Width: 0
VWidth: 2748
Flags: HW
AnchorPoint: "Anchor110" 534 1204 mark 0
AnchorPoint: "Anchor109" 534 1204 mark 0
AnchorPoint: "Anchor101" 535 1717 basemark 0
AnchorPoint: "Anchor101" 534 1204 mark 0
LayerCount: 2
Fore
SplineSet
873 1662 m 1
 889 1609 900 1554 900 1503 c 0
 900 1386 858 1285 736 1285 c 0
 680 1285 639 1307 613 1350 c 1
 578 1306 531 1285 475 1285 c 0
 440 1285 411 1292 388 1306 c 1
 379 1121 289 1023 97 1023 c 0
 -116 1023 -196 1123 -196 1321 c 0
 -196 1396 -177 1472 -146 1548 c 1
 -54 1511 l 1
 -78 1446 -93 1382 -93 1324 c 0
 -93 1191 -51 1126 100 1126 c 0
 247 1126 289 1197 289 1343 c 0
 289 1406 270 1471 240 1534 c 1
 342 1569 l 1
 352 1536 364 1502 374 1469 c 0
 390 1417 420 1392 476 1392 c 0
 538 1392 561 1424 561 1489 c 0
 561 1503 558 1545 555 1586 c 1
 655 1598 l 1
 658 1557 661 1517 664 1476 c 0
 667 1426 689 1392 736 1392 c 0
 775 1392 798 1423 798 1496 c 0
 798 1532 788 1583 773 1635 c 1
 873 1662 l 1
EndSplineSet
EndChar

StartChar: uni220E
Encoding: 8718 8718 419
GlifName: uni220E_
Width: 983
VWidth: 2075
Flags: HW
LayerCount: 2
Fore
SplineSet
203 0 m 1
 203 855 l 1
 780 855 l 1
 780 0 l 1
 203 0 l 1
EndSplineSet
EndChar

StartChar: NameMe.65623
Encoding: 65608 -1 420
GlifName: N_ameM_e.65623
Width: 1855
VWidth: 2989
Flags: HW
LayerCount: 2
Fore
SplineSet
725 589 m 1
 760.693659873 581.954932129 821.214758885 574.888886465 878.508760221 574.888886465 c 0
 954.060126777 574.888886465 1024 587.175799386 1024 628 c 0
 1024 688 758 654 758 814 c 0
 758 972 978 1040 1088 1041 c 1
 1095 927 l 1
 1014 927 861 877 861 820 c 0
 861 778.139524934 1030.78640372 790.066345703 1096.99999888 709.188976327 c 0
 1113.03838348 689.59870407 1123 664.563474306 1123 632 c 0
 1123 504.470659883 1004.89421634 469.867279116 874.889956305 469.867279116 c 0
 824.660959939 469.867279116 772.655790891 475.03277911 725 482 c 1
 725 589 l 1
EndSplineSet
EndChar

StartChar: uni06AA
Encoding: 1706 1706 433
GlifName: uni06A_A_
Width: 2009
VWidth: 3091
Flags: HW
AnchorPoint: "Anchor110" 578 1066 basechar 0
AnchorPoint: "Anchor107" 853 -240 basechar 0
LayerCount: 2
Fore
SplineSet
1158 0 m 2
 789 0 l 2
 711 0 401 0 99 66 c 1
 123 224 l 1
 402 187 636 182 779 182 c 2
 1157 182 l 2
 1444 182 1737 199 1737 337 c 0
 1737 462 1369 481 1171 481 c 2
 685 481 l 2
 534.356689899 481 462.014452229 549.626258168 462.014452229 633.697982269 c 0
 462.014452229 691.596614519 496.32507803 756.820754232 563 812 c 0
 713 935 1081 1100 1438 1205 c 1
 1438 1032 l 1
 1169 945 843 816 625 660 c 1
 1176 660 l 2
 1639 660 1911 577 1911 334 c 0
 1911 58 1572 0 1158 0 c 2
EndSplineSet
Position2: "Single Positioning lookup 2 subtable" dx=0 dy=0 dh=-160 dv=0
Position2: "Single Positioning lookup 1 subtable" dx=0 dy=0 dh=-150 dv=0
Substitution2: "'init' Initial Forms in Arabic lookup 3 subtable" uni06AA.init
Substitution2: "'medi' Medial Forms in Arabic lookup 2 subtable" uni06AA.medi
Substitution2: "'fina' Terminal Forms in Arabic lookup 1 subtable" uni06AA.fina
EndChar

StartChar: uni06AA.fina
Encoding: 65609 -1 434
GlifName: uni06A_A_.fina
Width: 2092
VWidth: 3091
Flags: HW
AnchorPoint: "Anchor107" 957 -240 basechar 0
AnchorPoint: "Anchor110" 578 1066 basechar 0
LayerCount: 2
Fore
SplineSet
1158 0 m 2
 789 0 l 2
 690 0 401 0 99 66 c 1
 123 224 l 1
 402 187 636 182 779 182 c 2
 1157 182 l 2
 1444 182 1737 199 1737 337 c 0
 1737 462 1369 481 1171 481 c 2
 685 481 l 2
 533.757490635 481 462.606628962 549.853468792 462.606628962 633.616460155 c 0
 462.606628962 691.917843193 497.0760129 757.442217572 563 812 c 0
 713 935 1081 1100 1438 1205 c 1
 1438 1032 l 1
 1169 945 843 816 625 660 c 1
 1176 660 l 2
 1639 660 1911 577 1911 334 c 0
 1911 298 1896 254 1883 225 c 1
 1933 186 1993 182 2063 182 c 2
 2111 182 l 1
 2111 0 l 1
 2063 0 l 2
 1908 0 1821 46 1755 99 c 1
 1615 25 1399 0 1158 0 c 2
EndSplineSet
EndChar

StartChar: uni06AA.medi
Encoding: 65610 -1 435
GlifName: uni06A_A_.medi
Width: 1701
VWidth: 3091
Flags: HW
AnchorPoint: "Anchor110" 227 1077 basechar 0
AnchorPoint: "Anchor107" 813 -248 basechar 0
LayerCount: 2
Fore
SplineSet
1672 0 m 2
 1517 0 1430 46 1364 99 c 1
 1224 25 1008 0 767 0 c 2
 -20 0 l 1
 -20 182 l 1
 766 182 l 2
 1053 182 1347 199 1347 337 c 0
 1347 462 978 481 780 481 c 2
 294 481 l 2
 142.476091979 481 71.9819994053 549.397631354 71.9819994053 632.69352074 c 0
 71.9819994053 691.298401561 106.877799418 757.278178829 173 812 c 0
 323 935 691 1100 1048 1205 c 1
 1048 1032 l 1
 779 945 451 816 233 660 c 1
 785 660 l 2
 1248 660 1520 577 1520 334 c 0
 1520 298 1506 254 1493 225 c 1
 1543 186 1602 182 1672 182 c 2
 1721 182 l 1
 1721 0 l 1
 1672 0 l 2
EndSplineSet
EndChar

StartChar: uni06AA.init
Encoding: 65611 -1 436
GlifName: uni06A_A_.init
Width: 1619
VWidth: 3091
Flags: HW
AnchorPoint: "Anchor107" 813 -248 basechar 0
AnchorPoint: "Anchor110" 227 1077 basechar 0
LayerCount: 2
Fore
SplineSet
780 481 m 2
 294 481 l 2
 143.12456642 481 71.332773993 549.156313372 71.332773993 632.79436843 c 0
 71.332773993 690.946971844 106.038830612 756.583859817 173 812 c 0
 323 935 691 1100 1048 1205 c 1
 1048 1032 l 1
 779 945 451 816 233 660 c 1
 785 660 l 2
 1248 660 1520 577 1520 334 c 0
 1520 58 1181 0 767 0 c 2
 -20 0 l 5
 -20 182 l 5
 766 182 l 2
 1053 182 1347 199 1347 337 c 0
 1347 462 978 481 780 481 c 2
EndSplineSet
Position2: "Single Positioning lookup 2 subtable" dx=0 dy=0 dh=-160 dv=0
Position2: "Single Positioning lookup 1 subtable" dx=0 dy=0 dh=-150 dv=0
EndChar

StartChar: uni065B
Encoding: 1627 1627 452
GlifName: uni065B_
Width: 0
VWidth: 2347
Flags: HW
AnchorPoint: "Anchor110" 575 1419 mark 0
AnchorPoint: "Anchor109" 575 1419 mark 0
AnchorPoint: "Anchor101" 581 1807 basemark 0
AnchorPoint: "Anchor101" 575 1419 mark 0
LayerCount: 2
Fore
SplineSet
786.935826908 1472.25008688 m 1
 705.815503072 1432.35516922 l 1
 581.170884158 1685.79797233 l 1
 456.527259049 1432.35517479 l 1
 375.406946529 1472.25008688 l 1
 528.833551894 1784.21777344 l 1
 633.509221543 1784.21777344 l 1
 786.935826908 1472.25008688 l 1
EndSplineSet
EndChar

StartChar: extender
Encoding: 65622 -1 453
GlifName: N_ameM_e.65635
Width: 299
VWidth: 3091
Flags: HW
AnchorPoint: "Anchor110" 151 909 basechar 0
AnchorPoint: "Anchor107" 155 -251 basechar 0
LayerCount: 2
Fore
SplineSet
-18 182 m 1
 318 182 l 1
 318 0 l 1
 -18 0 l 1
 -18 182 l 1
EndSplineSet
EndChar

StartChar: uni25CC
Encoding: 9676 9676 454
GlifName: uni25C_C_
Width: 1246
VWidth: 2075
Flags: HW
AnchorPoint: "Anchor110" 639 1236 basechar 0
AnchorPoint: "Anchor107" 614 -241 basechar 0
LayerCount: 2
Fore
SplineSet
362 37 m 1x0c
 294 77 236 125 192 186 c 1
 258 228 l 1
 293 178 341 139 395 108 c 1
 362 37 l 1x0c
987 228 m 1
 1054 187 l 1
 1005 123 954 77 883 37 c 1
 851 108 l 1
 908 140 946 175 987 228 c 1
883 940 m 1
 952 901 1010 852 1054 791 c 1
 987 749 l 1
 951 799 906 838 851 869 c 1
 883 940 l 1
258 749 m 1
 192 791 l 1
 232 847 296 902 362 940 c 1
 395 869 l 1
 341 838 293 799 258 749 c 1
623 39 m 0x8c
 657 39 693 45 726 54 c 1
 751 -20 l 1
 709 -31 666 -37 623 -37 c 0x8c
 580 -37 537 -31 495 -20 c 1
 521 54 l 1x4c
 554 45 589 39 623 39 c 0x8c
1144 489 m 0
 1144 444 1139 401 1131 360 c 1
 1058 386 l 1
 1065 418 1068 454 1068 489 c 0
 1068 524 1065 559 1058 591 c 1
 1131 617 l 1
 1139 576 1144 534 1144 489 c 0
623 939 m 0x1c
 589 939 554 932 521 923 c 1
 495 997 l 1x2c
 537 1008 580 1015 623 1015 c 0
 666 1015 709 1008 751 997 c 1
 726 923 l 1
 693 932 657 939 623 939 c 0x1c
178 489 m 0
 178 454 182 418 189 386 c 1
 116 360 l 1
 108 401 102 444 102 489 c 0
 102 534 108 576 116 617 c 1
 189 591 l 1
 182 559 178 524 178 489 c 0
EndSplineSet
EndChar

StartChar: plus
Encoding: 43 43 477
GlifName: plus
Width: 1098
Flags: HW
LayerCount: 2
Fore
SplineSet
625 444 m 1
 625 72 l 1
 473 72 l 1
 473 444 l 1
 140 444 l 1
 140 596 l 1
 473 596 l 1
 473 940 l 1
 625 940 l 1
 625 596 l 1
 958 596 l 1
 958 444 l 1
 625 444 l 1
EndSplineSet
EndChar

StartChar: hyphen
Encoding: 45 45 478
GlifName: hyphen
Width: 955
Flags: HW
LayerCount: 2
Fore
SplineSet
815 443 m 1
 140 443 l 1
 140 594 l 1
 815 594 l 1
 815 443 l 1
EndSplineSet
EndChar

StartChar: multiply
Encoding: 215 215 479
GlifName: multiply
Width: 1028
Flags: HW
LayerCount: 2
Fore
SplineSet
407 515 m 1
 142 786 l 1
 247 896 l 1
 514 624 l 1
 781 896 l 1
 886 786 l 1
 621 515 l 1
 888 243 l 1
 782 133 l 1
 514 406 l 1
 246 133 l 1
 140 243 l 1
 407 515 l 1
EndSplineSet
EndChar

StartChar: divide
Encoding: 247 247 480
GlifName: divide
Width: 1164
Flags: HW
LayerCount: 2
Fore
SplineSet
469 189 m 0
 469 253 522 307 586 307 c 0
 650 307 703 253 703 189 c 0
 703 125 650 72 586 72 c 0
 522 72 469 123 469 189 c 0
469 851 m 0
 469 915 522 969 586 969 c 0
 650 969 703 915 703 851 c 0
 703 787 650 734 586 734 c 0
 522 734 469 785 469 851 c 0
140 447 m 1
 140 598 l 1
 1024 598 l 1
 1024 447 l 1
 140 447 l 1
EndSplineSet
EndChar

StartChar: parenleft
Encoding: 40 40 539
GlifName: parenleft
Width: 700
Flags: HW
LayerCount: 2
Fore
SplineSet
312 591 m 0
 312 215 433 -164 661 -339 c 1
 623 -461 l 1
 328 -301 133 134 133 591 c 0
 133 1048 328 1483 623 1643 c 1
 661 1521 l 1
 433 1346 312 967 312 591 c 0
EndSplineSet
Position2: "Single Positioning lookup 7 subtable" dx=0 dy=0 dh=80 dv=0
Position2: "Single Positioning lookup 6 subtable" dx=0 dy=0 dh=160 dv=0
EndChar

StartChar: parenright
Encoding: 41 41 540
GlifName: parenright
Width: 700
Flags: HW
LayerCount: 2
Fore
SplineSet
388 591 m 0
 388 967 267 1346 39 1521 c 1
 77 1643 l 1
 372 1483 567 1048 567 591 c 0
 567 134 372 -301 77 -461 c 1
 39 -339 l 1
 267 -164 388 215 388 591 c 0
EndSplineSet
EndChar

StartChar: bracketleft
Encoding: 91 91 541
GlifName: bracketleft
Width: 543
Flags: HW
LayerCount: 2
Fore
SplineSet
523 1512 m 1
 332 1512 l 1
 332 -160 l 1
 523 -160 l 1
 523 -312 l 1
 156 -312 l 5
 156 1664 l 5
 523 1664 l 1
 523 1512 l 1
EndSplineSet
Position2: "Single Positioning lookup 7 subtable" dx=0 dy=0 dh=100 dv=0
Position2: "Single Positioning lookup 6 subtable" dx=0 dy=0 dh=160 dv=0
EndChar

StartChar: bracketright
Encoding: 93 93 542
GlifName: bracketright
Width: 543
Flags: HW
LayerCount: 2
Fore
SplineSet
9 1664 m 1
 377 1664 l 5
 377 -312 l 5
 9 -312 l 1
 9 -160 l 1
 202 -160 l 1
 202 1512 l 1
 9 1512 l 1
 9 1664 l 1
EndSplineSet
EndChar

StartChar: slash
Encoding: 47 47 543
GlifName: slash
Width: 844
Flags: HW
LayerCount: 2
Fore
SplineSet
177 -125 m 1
 18 -125 l 1
 626 1456 l 1
 784 1456 l 1
 177 -125 l 1
EndSplineSet
Position2: "Single Positioning lookup 6 subtable" dx=0 dy=0 dh=180 dv=0
EndChar

StartChar: NameMe.65703
Encoding: 65703 -1 544
GlifName: N_ameM_e.65703
Width: 475
VWidth: 2834
Flags: HW
LayerCount: 2
Fore
SplineSet
322 1247.17675781 m 1
 322 0.8994140625 l 1
 153 0.8994140625 l 5
 153 1247.17675781 l 5
 322 1247.17675781 l 1
EndSplineSet
EndChar

StartChar: equal
Encoding: 61 61 545
GlifName: equal
Width: 1124
Flags: HW
LayerCount: 2
Fore
SplineSet
986 249 m 1
 152 249 l 1
 152 399 l 1
 986 399 l 1
 986 249 l 1
986 634 m 1
 152 634 l 1
 152 785 l 1
 986 785 l 1
 986 634 l 1
EndSplineSet
EndChar

StartChar: arabic_dot_r
Encoding: 65704 -1 548
Width: 197
VWidth: 2812
Flags: HW
LayerCount: 2
Fore
SplineSet
-21.150390625 102 m 0
 -21.150390625 164.511695796 30.649002895 213.400390625 95.9501953125 213.400390625 c 0
 161.02200734 213.400390625 212.150390625 164.850059176 212.150390625 102 c 0
 212.150390625 39.1499408239 161.02200734 -9.400390625 95.9501953125 -9.400390625 c 0
 30.649002895 -9.400390625 -21.150390625 39.4883042036 -21.150390625 102 c 0
EndSplineSet
EndChar

StartChar: arabic_2dots_r
Encoding: 65705 -1 549
Width: 517
VWidth: 2812
Flags: HW
LayerCount: 2
Fore
SplineSet
303.3828125 102 m 0
 303.3828125 161.29296875 352.516601562 207.655273438 414.436523438 207.655273438 c 0
 476.138671875 207.655273438 524.63671875 161.612304688 524.63671875 102 c 0
 524.63671875 42.3876953125 476.138671875 -3.6552734375 414.436523438 -3.6552734375 c 0
 352.516601562 -3.6552734375 303.3828125 42.70703125 303.3828125 102 c 0
-9.6181640625 102 m 4
 -9.6181640625 161.29296875 39.515625 207.655273438 101.435546875 207.655273438 c 4
 163.137695312 207.655273438 211.635742188 161.612304688 211.635742188 102 c 4
 211.635742188 42.3876953125 163.137695312 -3.6552734375 101.435546875 -3.6552734375 c 4
 39.515625 -3.6552734375 -9.6181640625 42.70703125 -9.6181640625 102 c 4
EndSplineSet
EndChar

StartChar: arabic_3dots_r
Encoding: 65706 -1 550
Width: 528
VWidth: 2805
Flags: HW
LayerCount: 2
Fore
SplineSet
148.415039062 326.325195312 m 4
 148.415039062 383.536132812 195.83203125 428.2109375 255.447265625 428.2109375 c 4
 314.861328125 428.2109375 361.666992188 383.83203125 361.666992188 326.325195312 c 4
 361.666992188 268.818359375 314.861328125 224.439453125 255.447265625 224.439453125 c 4
 195.83203125 224.439453125 148.415039062 269.114257812 148.415039062 326.325195312 c 4
307.915039062 66 m 0
 307.915039062 123.2109375 355.33203125 167.885742188 414.947265625 167.885742188 c 0
 474.361328125 167.885742188 521.166992188 123.506835938 521.166992188 66 c 0
 521.166992188 8.4931640625 474.361328125 -35.8857421875 414.947265625 -35.8857421875 c 0
 355.33203125 -35.8857421875 307.915039062 8.7890625 307.915039062 66 c 0
-11.0849609375 66 m 0
 -11.0849609375 123.2109375 36.33203125 167.885742188 95.947265625 167.885742188 c 0
 155.361328125 167.885742188 202.166992188 123.506835938 202.166992188 66 c 0
 202.166992188 8.4931640625 155.361328125 -35.8857421875 95.947265625 -35.8857421875 c 0
 36.33203125 -35.8857421875 -11.0849609375 8.7890625 -11.0849609375 66 c 0
EndSplineSet
EndChar

StartChar: arabic_3dots_a_r
Encoding: 65707 -1 551
Width: 528
VWidth: 2820
Flags: HW
LayerCount: 2
Fore
SplineSet
361.584960938 -123.325195312 m 4
 361.584960938 -180.83203125 314.779296875 -225.2109375 255.365234375 -225.2109375 c 4
 195.75 -225.2109375 148.333007812 -180.536132812 148.333007812 -123.325195312 c 4
 148.333007812 -66.1142578125 195.75 -21.439453125 255.365234375 -21.439453125 c 4
 314.779296875 -21.439453125 361.584960938 -65.818359375 361.584960938 -123.325195312 c 4
521.084960938 137 m 0
 521.084960938 79.4931640625 474.279296875 35.1142578125 414.865234375 35.1142578125 c 0
 355.25 35.1142578125 307.833007812 79.7890625 307.833007812 137 c 0
 307.833007812 194.2109375 355.25 238.885742188 414.865234375 238.885742188 c 0
 474.279296875 238.885742188 521.084960938 194.506835938 521.084960938 137 c 0
202.084960938 137 m 0
 202.084960938 79.4931640625 155.279296875 35.1142578125 95.865234375 35.1142578125 c 0
 36.25 35.1142578125 -11.1669921875 79.7890625 -11.1669921875 137 c 0
 -11.1669921875 194.2109375 36.25 238.885742188 95.865234375 238.885742188 c 0
 155.279296875 238.885742188 202.084960938 194.506835938 202.084960938 137 c 0
EndSplineSet
EndChar

StartChar: uni06D0.dots_r
Encoding: 65708 -1 552
Width: 528
VWidth: 2809
Flags: HW
LayerCount: 2
Fore
SplineSet
255.509765625 389.127929688 m 4
 314.5390625 389.127929688 360.165039062 341.124023438 360.165039062 279.927734375 c 0
 360.165039062 218.508789062 314.211914062 169.874023438 255.509765625 169.874023438 c 0
 196.806640625 169.874023438 150.853515625 218.508789062 150.853515625 279.927734375 c 0
 150.853515625 341.124023438 196.479492188 389.127929688 255.509765625 389.127929688 c 4
255.509765625 88.126953125 m 0
 314.5390625 88.126953125 360.165039062 40.123046875 360.165039062 -21.0732421875 c 0
 360.165039062 -82.4921875 314.211914062 -131.126953125 255.509765625 -131.126953125 c 0
 196.806640625 -131.126953125 150.853515625 -82.4921875 150.853515625 -21.0732421875 c 0
 150.853515625 40.123046875 196.479492188 88.126953125 255.509765625 88.126953125 c 0
EndSplineSet
EndChar

StartChar: endash
Encoding: 8211 8211 553
Width: 1345
Flags: HW
LayerCount: 2
Fore
SplineSet
1205 443 m 1
 140 443 l 1
 140 594 l 1
 1205 594 l 1
 1205 443 l 1
EndSplineSet
EndChar

StartChar: emdash
Encoding: 8212 8212 554
Width: 1600
Flags: HW
LayerCount: 2
Fore
SplineSet
1460 443 m 1
 140 443 l 1
 140 594 l 1
 1460 594 l 1
 1460 443 l 1
EndSplineSet
EndChar

